ISO-10303-21;
HEADER;
/* Generated by software containing ST-Developer
 * from STEP Tools, Inc. (www.steptools.com) 
 */
/* OPTION: using custom renumber hook */

FILE_DESCRIPTION(
/* description */ (
  'STEP AP242 Edition 2',
  'License: MIT License, (c) 2025 Allan Juhl Kristensen',
  'CAx-IF Rec.Pracs.---Representation and Presentation of Product Manufacturing Information (PMI)---4.0---2014-10-13',
  'CAx-IF Rec.Pracs.---3D Tessellated Geometry---0.4---2014-09-14',
  'CAx-IF Rec.Pracs.---User Defined Attributes---1.5---2016-08-15'
),
/* implementation_level */ '2;1');

FILE_NAME(
/* name */ 'Light_Guide',
/* time_stamp */ '2025-11-30T14:25:38Z',
/* author */ ('Allan Juhl Kristensen'),
/* organization */ (''),
/* preprocessor_version */ 'ST-DEVELOPER v20',
/* originating_system */ 'ONSHAPE BY PTC INC, 1.207',
/* authorisation */ 'Open-source release under MIT License');

FILE_SCHEMA (('AP242_MANAGED_MODEL_BASED_3D_ENGINEERING_MIM_LF { 1 0 10303 442 3 1 4 }'));
ENDSEC;

DATA;
#10=SHAPE_REPRESENTATION_RELATIONSHIP('','',#594,#11);
#11=ADVANCED_BREP_SHAPE_REPRESENTATION('',(#592),#1042);
#12=SPHERICAL_SURFACE('',#657,0.0002);
#13=SPHERICAL_SURFACE('',#661,0.0002);
#14=SPHERICAL_SURFACE('',#666,0.0002);
#15=SPHERICAL_SURFACE('',#670,0.0002);
#16=TOROIDAL_SURFACE('',#627,0.0048,0.0002);
#17=TOROIDAL_SURFACE('',#633,0.0048,0.0002);
#18=TOROIDAL_SURFACE('',#635,0.0048,0.0002);
#19=TOROIDAL_SURFACE('',#642,0.0048,0.0002);
#20=CYLINDRICAL_SURFACE('',#614,0.005);
#21=CYLINDRICAL_SURFACE('',#617,0.005);
#22=CYLINDRICAL_SURFACE('',#620,0.0002);
#23=CYLINDRICAL_SURFACE('',#624,0.0002);
#24=CYLINDRICAL_SURFACE('',#629,0.0002);
#25=CYLINDRICAL_SURFACE('',#631,0.0002);
#26=CYLINDRICAL_SURFACE('',#637,0.0002);
#27=CYLINDRICAL_SURFACE('',#639,0.0002);
#28=CYLINDRICAL_SURFACE('',#644,0.0002);
#29=CYLINDRICAL_SURFACE('',#647,0.0002);
#30=CYLINDRICAL_SURFACE('',#648,0.0002);
#31=CYLINDRICAL_SURFACE('',#651,0.0002);
#32=CYLINDRICAL_SURFACE('',#655,0.0002);
#33=CYLINDRICAL_SURFACE('',#659,0.0002);
#34=CYLINDRICAL_SURFACE('',#663,0.0002);
#35=CYLINDRICAL_SURFACE('',#664,0.0002);
#36=CYLINDRICAL_SURFACE('',#668,0.0002);
#37=CYLINDRICAL_SURFACE('',#672,0.0002);
#38=ELLIPSE('',#608,0.000200390244273518,0.0002);
#39=ELLIPSE('',#612,0.000200390244273518,0.0002);
#40=ELLIPSE('',#621,0.00320624390837629,0.0002);
#41=ELLIPSE('',#622,0.000282842712474619,0.0002);
#42=ELLIPSE('',#625,0.000200390244273518,0.0002);
#43=ELLIPSE('',#626,0.000282842712474619,0.0002);
#44=ELLIPSE('',#640,0.000282842712474619,0.0002);
#45=ELLIPSE('',#641,0.00320624390837629,0.0002);
#46=ELLIPSE('',#645,0.000200390244273518,0.0002);
#47=ELLIPSE('',#646,0.000282842712474619,0.0002);
#48=CIRCLE('',#597,0.0048);
#49=CIRCLE('',#598,0.0048);
#50=CIRCLE('',#601,0.0048);
#51=CIRCLE('',#602,0.0048);
#52=CIRCLE('',#609,0.0002);
#53=CIRCLE('',#611,0.0002);
#54=CIRCLE('',#615,0.005);
#55=CIRCLE('',#616,0.005);
#56=CIRCLE('',#618,0.005);
#57=CIRCLE('',#619,0.005);
#58=CIRCLE('',#623,0.0002);
#59=CIRCLE('',#628,0.0002);
#60=CIRCLE('',#630,0.0002);
#61=CIRCLE('',#632,0.0002);
#62=CIRCLE('',#634,0.0002);
#63=CIRCLE('',#636,0.0002);
#64=CIRCLE('',#638,0.0002);
#65=CIRCLE('',#643,0.0002);
#66=CIRCLE('',#649,0.0002);
#67=CIRCLE('',#650,0.0002);
#68=CIRCLE('',#652,0.0002);
#69=CIRCLE('',#653,0.0002);
#70=CIRCLE('',#656,0.0002);
#71=CIRCLE('',#658,0.0002);
#72=CIRCLE('',#660,0.0002);
#73=CIRCLE('',#662,0.0002);
#74=CIRCLE('',#665,0.0002);
#75=CIRCLE('',#667,0.0002);
#76=CIRCLE('',#669,0.0002);
#77=CIRCLE('',#671,0.0002);
#78=ORIENTED_EDGE('',*,*,#244,.T.);
#79=ORIENTED_EDGE('',*,*,#245,.F.);
#80=ORIENTED_EDGE('',*,*,#246,.T.);
#81=ORIENTED_EDGE('',*,*,#247,.T.);
#82=ORIENTED_EDGE('',*,*,#248,.T.);
#83=ORIENTED_EDGE('',*,*,#249,.T.);
#84=ORIENTED_EDGE('',*,*,#250,.T.);
#85=ORIENTED_EDGE('',*,*,#251,.F.);
#86=ORIENTED_EDGE('',*,*,#252,.T.);
#87=ORIENTED_EDGE('',*,*,#253,.T.);
#88=ORIENTED_EDGE('',*,*,#254,.T.);
#89=ORIENTED_EDGE('',*,*,#255,.T.);
#90=ORIENTED_EDGE('',*,*,#256,.T.);
#91=ORIENTED_EDGE('',*,*,#257,.T.);
#92=ORIENTED_EDGE('',*,*,#258,.T.);
#93=ORIENTED_EDGE('',*,*,#259,.T.);
#94=ORIENTED_EDGE('',*,*,#260,.T.);
#95=ORIENTED_EDGE('',*,*,#261,.T.);
#96=ORIENTED_EDGE('',*,*,#262,.T.);
#97=ORIENTED_EDGE('',*,*,#263,.T.);
#98=ORIENTED_EDGE('',*,*,#264,.T.);
#99=ORIENTED_EDGE('',*,*,#265,.T.);
#100=ORIENTED_EDGE('',*,*,#266,.T.);
#101=ORIENTED_EDGE('',*,*,#267,.T.);
#102=ORIENTED_EDGE('',*,*,#268,.T.);
#103=ORIENTED_EDGE('',*,*,#269,.T.);
#104=ORIENTED_EDGE('',*,*,#270,.T.);
#105=ORIENTED_EDGE('',*,*,#271,.T.);
#106=ORIENTED_EDGE('',*,*,#272,.T.);
#107=ORIENTED_EDGE('',*,*,#273,.T.);
#108=ORIENTED_EDGE('',*,*,#274,.T.);
#109=ORIENTED_EDGE('',*,*,#275,.T.);
#110=ORIENTED_EDGE('',*,*,#276,.T.);
#111=ORIENTED_EDGE('',*,*,#277,.T.);
#112=ORIENTED_EDGE('',*,*,#278,.T.);
#113=ORIENTED_EDGE('',*,*,#279,.T.);
#114=ORIENTED_EDGE('',*,*,#280,.F.);
#115=ORIENTED_EDGE('',*,*,#281,.T.);
#116=ORIENTED_EDGE('',*,*,#282,.T.);
#117=ORIENTED_EDGE('',*,*,#276,.F.);
#118=ORIENTED_EDGE('',*,*,#283,.T.);
#119=ORIENTED_EDGE('',*,*,#251,.T.);
#120=ORIENTED_EDGE('',*,*,#245,.T.);
#121=ORIENTED_EDGE('',*,*,#284,.T.);
#122=ORIENTED_EDGE('',*,*,#285,.T.);
#123=ORIENTED_EDGE('',*,*,#286,.T.);
#124=ORIENTED_EDGE('',*,*,#287,.T.);
#125=ORIENTED_EDGE('',*,*,#288,.F.);
#126=ORIENTED_EDGE('',*,*,#289,.T.);
#127=ORIENTED_EDGE('',*,*,#290,.T.);
#128=ORIENTED_EDGE('',*,*,#285,.F.);
#129=ORIENTED_EDGE('',*,*,#291,.T.);
#130=ORIENTED_EDGE('',*,*,#270,.F.);
#131=ORIENTED_EDGE('',*,*,#292,.T.);
#132=ORIENTED_EDGE('',*,*,#272,.F.);
#133=ORIENTED_EDGE('',*,*,#293,.T.);
#134=ORIENTED_EDGE('',*,*,#274,.F.);
#135=ORIENTED_EDGE('',*,*,#294,.T.);
#136=ORIENTED_EDGE('',*,*,#254,.F.);
#137=ORIENTED_EDGE('',*,*,#295,.T.);
#138=ORIENTED_EDGE('',*,*,#260,.F.);
#139=ORIENTED_EDGE('',*,*,#296,.T.);
#140=ORIENTED_EDGE('',*,*,#297,.F.);
#141=ORIENTED_EDGE('',*,*,#271,.F.);
#142=ORIENTED_EDGE('',*,*,#298,.F.);
#143=ORIENTED_EDGE('',*,*,#297,.T.);
#144=ORIENTED_EDGE('',*,*,#299,.T.);
#145=ORIENTED_EDGE('',*,*,#280,.T.);
#146=ORIENTED_EDGE('',*,*,#300,.F.);
#147=ORIENTED_EDGE('',*,*,#268,.F.);
#148=ORIENTED_EDGE('',*,*,#298,.T.);
#149=ORIENTED_EDGE('',*,*,#293,.F.);
#150=ORIENTED_EDGE('',*,*,#301,.F.);
#151=ORIENTED_EDGE('',*,*,#261,.F.);
#152=ORIENTED_EDGE('',*,*,#300,.T.);
#153=ORIENTED_EDGE('',*,*,#250,.F.);
#154=ORIENTED_EDGE('',*,*,#302,.F.);
#155=ORIENTED_EDGE('',*,*,#269,.F.);
#156=ORIENTED_EDGE('',*,*,#301,.T.);
#157=ORIENTED_EDGE('',*,*,#275,.F.);
#158=ORIENTED_EDGE('',*,*,#303,.F.);
#159=ORIENTED_EDGE('',*,*,#262,.F.);
#160=ORIENTED_EDGE('',*,*,#302,.T.);
#161=ORIENTED_EDGE('',*,*,#249,.F.);
#162=ORIENTED_EDGE('',*,*,#304,.F.);
#163=ORIENTED_EDGE('',*,*,#292,.F.);
#164=ORIENTED_EDGE('',*,*,#303,.T.);
#165=ORIENTED_EDGE('',*,*,#295,.F.);
#166=ORIENTED_EDGE('',*,*,#305,.F.);
#167=ORIENTED_EDGE('',*,*,#263,.F.);
#168=ORIENTED_EDGE('',*,*,#304,.T.);
#169=ORIENTED_EDGE('',*,*,#248,.F.);
#170=ORIENTED_EDGE('',*,*,#306,.F.);
#171=ORIENTED_EDGE('',*,*,#273,.F.);
#172=ORIENTED_EDGE('',*,*,#307,.F.);
#173=ORIENTED_EDGE('',*,*,#308,.T.);
#174=ORIENTED_EDGE('',*,*,#258,.F.);
#175=ORIENTED_EDGE('',*,*,#305,.T.);
#176=ORIENTED_EDGE('',*,*,#257,.F.);
#177=ORIENTED_EDGE('',*,*,#306,.T.);
#178=ORIENTED_EDGE('',*,*,#247,.F.);
#179=ORIENTED_EDGE('',*,*,#309,.F.);
#180=ORIENTED_EDGE('',*,*,#294,.F.);
#181=ORIENTED_EDGE('',*,*,#288,.T.);
#182=ORIENTED_EDGE('',*,*,#310,.T.);
#183=ORIENTED_EDGE('',*,*,#307,.T.);
#184=ORIENTED_EDGE('',*,*,#256,.F.);
#185=ORIENTED_EDGE('',*,*,#311,.F.);
#186=ORIENTED_EDGE('',*,*,#309,.T.);
#187=ORIENTED_EDGE('',*,*,#246,.F.);
#188=ORIENTED_EDGE('',*,*,#311,.T.);
#189=ORIENTED_EDGE('',*,*,#255,.F.);
#190=ORIENTED_EDGE('',*,*,#266,.F.);
#191=ORIENTED_EDGE('',*,*,#312,.T.);
#192=ORIENTED_EDGE('',*,*,#289,.F.);
#193=ORIENTED_EDGE('',*,*,#313,.T.);
#194=ORIENTED_EDGE('',*,*,#278,.F.);
#195=ORIENTED_EDGE('',*,*,#314,.T.);
#196=ORIENTED_EDGE('',*,*,#264,.F.);
#197=ORIENTED_EDGE('',*,*,#315,.T.);
#198=ORIENTED_EDGE('',*,*,#316,.T.);
#199=ORIENTED_EDGE('',*,*,#281,.F.);
#200=ORIENTED_EDGE('',*,*,#299,.F.);
#201=ORIENTED_EDGE('',*,*,#296,.F.);
#202=ORIENTED_EDGE('',*,*,#259,.F.);
#203=ORIENTED_EDGE('',*,*,#308,.F.);
#204=ORIENTED_EDGE('',*,*,#310,.F.);
#205=ORIENTED_EDGE('',*,*,#287,.F.);
#206=ORIENTED_EDGE('',*,*,#317,.T.);
#207=ORIENTED_EDGE('',*,*,#318,.T.);
#208=ORIENTED_EDGE('',*,*,#286,.F.);
#209=ORIENTED_EDGE('',*,*,#290,.F.);
#210=ORIENTED_EDGE('',*,*,#319,.F.);
#211=ORIENTED_EDGE('',*,*,#317,.F.);
#212=ORIENTED_EDGE('',*,*,#319,.T.);
#213=ORIENTED_EDGE('',*,*,#312,.F.);
#214=ORIENTED_EDGE('',*,*,#320,.F.);
#215=ORIENTED_EDGE('',*,*,#320,.T.);
#216=ORIENTED_EDGE('',*,*,#265,.F.);
#217=ORIENTED_EDGE('',*,*,#321,.F.);
#218=ORIENTED_EDGE('',*,*,#318,.F.);
#219=ORIENTED_EDGE('',*,*,#321,.T.);
#220=ORIENTED_EDGE('',*,*,#314,.F.);
#221=ORIENTED_EDGE('',*,*,#322,.F.);
#222=ORIENTED_EDGE('',*,*,#282,.F.);
#223=ORIENTED_EDGE('',*,*,#316,.F.);
#224=ORIENTED_EDGE('',*,*,#322,.T.);
#225=ORIENTED_EDGE('',*,*,#277,.F.);
#226=ORIENTED_EDGE('',*,*,#283,.F.);
#227=ORIENTED_EDGE('',*,*,#279,.F.);
#228=ORIENTED_EDGE('',*,*,#323,.F.);
#229=ORIENTED_EDGE('',*,*,#252,.F.);
#230=ORIENTED_EDGE('',*,*,#323,.T.);
#231=ORIENTED_EDGE('',*,*,#315,.F.);
#232=ORIENTED_EDGE('',*,*,#324,.F.);
#233=ORIENTED_EDGE('',*,*,#324,.T.);
#234=ORIENTED_EDGE('',*,*,#267,.F.);
#235=ORIENTED_EDGE('',*,*,#325,.F.);
#236=ORIENTED_EDGE('',*,*,#253,.F.);
#237=ORIENTED_EDGE('',*,*,#325,.T.);
#238=ORIENTED_EDGE('',*,*,#313,.F.);
#239=ORIENTED_EDGE('',*,*,#326,.F.);
#240=ORIENTED_EDGE('',*,*,#326,.T.);
#241=ORIENTED_EDGE('',*,*,#291,.F.);
#242=ORIENTED_EDGE('',*,*,#284,.F.);
#243=ORIENTED_EDGE('',*,*,#244,.F.);
#244=EDGE_CURVE('',#327,#328,#375,.T.);
#245=EDGE_CURVE('',#329,#328,#376,.T.);
#246=EDGE_CURVE('',#329,#330,#377,.F.);
#247=EDGE_CURVE('',#330,#331,#48,.T.);
#248=EDGE_CURVE('',#331,#332,#378,.T.);
#249=EDGE_CURVE('',#332,#333,#49,.T.);
#250=EDGE_CURVE('',#333,#334,#379,.T.);
#251=EDGE_CURVE('',#335,#334,#380,.T.);
#252=EDGE_CURVE('',#335,#336,#381,.F.);
#253=EDGE_CURVE('',#336,#327,#382,.F.);
#254=EDGE_CURVE('',#337,#338,#383,.F.);
#255=EDGE_CURVE('',#338,#339,#384,.T.);
#256=EDGE_CURVE('',#339,#340,#385,.T.);
#257=EDGE_CURVE('',#340,#337,#386,.F.);
#258=EDGE_CURVE('',#341,#342,#387,.T.);
#259=EDGE_CURVE('',#342,#343,#388,.T.);
#260=EDGE_CURVE('',#343,#344,#389,.F.);
#261=EDGE_CURVE('',#344,#345,#50,.F.);
#262=EDGE_CURVE('',#345,#346,#390,.F.);
#263=EDGE_CURVE('',#346,#341,#51,.F.);
#264=EDGE_CURVE('',#347,#348,#391,.T.);
#265=EDGE_CURVE('',#348,#349,#392,.F.);
#266=EDGE_CURVE('',#349,#350,#393,.F.);
#267=EDGE_CURVE('',#350,#347,#394,.T.);
#268=EDGE_CURVE('',#351,#352,#395,.F.);
#269=EDGE_CURVE('',#352,#353,#396,.F.);
#270=EDGE_CURVE('',#353,#354,#397,.T.);
#271=EDGE_CURVE('',#354,#351,#398,.T.);
#272=EDGE_CURVE('',#355,#356,#399,.F.);
#273=EDGE_CURVE('',#356,#357,#400,.F.);
#274=EDGE_CURVE('',#357,#358,#401,.T.);
#275=EDGE_CURVE('',#358,#355,#402,.T.);
#276=EDGE_CURVE('',#359,#360,#403,.T.);
#277=EDGE_CURVE('',#360,#361,#404,.F.);
#278=EDGE_CURVE('',#361,#362,#405,.F.);
#279=EDGE_CURVE('',#362,#359,#406,.T.);
#280=EDGE_CURVE('',#363,#334,#407,.T.);
#281=EDGE_CURVE('',#363,#364,#408,.F.);
#282=EDGE_CURVE('',#364,#360,#38,.T.);
#283=EDGE_CURVE('',#359,#335,#52,.T.);
#284=EDGE_CURVE('',#328,#365,#53,.T.);
#285=EDGE_CURVE('',#365,#366,#409,.T.);
#286=EDGE_CURVE('',#366,#367,#39,.T.);
#287=EDGE_CURVE('',#367,#368,#410,.F.);
#288=EDGE_CURVE('',#329,#368,#411,.F.);
#289=EDGE_CURVE('',#369,#370,#412,.T.);
#290=EDGE_CURVE('',#370,#366,#413,.F.);
#291=EDGE_CURVE('',#365,#369,#414,.F.);
#292=EDGE_CURVE('',#353,#356,#54,.F.);
#293=EDGE_CURVE('',#355,#354,#55,.T.);
#294=EDGE_CURVE('',#357,#338,#56,.F.);
#295=EDGE_CURVE('',#337,#358,#57,.T.);
#296=EDGE_CURVE('',#343,#371,#40,.T.);
#297=EDGE_CURVE('',#351,#371,#41,.T.);
#298=EDGE_CURVE('',#344,#354,#58,.T.);
#299=EDGE_CURVE('',#371,#363,#42,.T.);
#300=EDGE_CURVE('',#352,#334,#43,.T.);
#301=EDGE_CURVE('',#345,#355,#59,.T.);
#302=EDGE_CURVE('',#353,#333,#60,.T.);
#303=EDGE_CURVE('',#346,#358,#61,.T.);
#304=EDGE_CURVE('',#356,#332,#62,.T.);
#305=EDGE_CURVE('',#341,#337,#63,.T.);
#306=EDGE_CURVE('',#357,#331,#64,.T.);
#307=EDGE_CURVE('',#372,#340,#44,.F.);
#308=EDGE_CURVE('',#372,#342,#45,.T.);
#309=EDGE_CURVE('',#338,#330,#65,.T.);
#310=EDGE_CURVE('',#368,#372,#46,.T.);
#311=EDGE_CURVE('',#329,#339,#47,.F.);
#312=EDGE_CURVE('',#349,#370,#66,.T.);
#313=EDGE_CURVE('',#369,#350,#67,.F.);
#314=EDGE_CURVE('',#361,#348,#68,.F.);
#315=EDGE_CURVE('',#347,#362,#69,.T.);
#316=EDGE_CURVE('',#373,#364,#415,.F.);
#317=EDGE_CURVE('',#367,#374,#416,.F.);
#318=EDGE_CURVE('',#374,#373,#417,.F.);
#319=EDGE_CURVE('',#374,#370,#70,.T.);
#320=EDGE_CURVE('',#374,#349,#71,.T.);
#321=EDGE_CURVE('',#373,#348,#72,.T.);
#322=EDGE_CURVE('',#373,#361,#73,.T.);
#323=EDGE_CURVE('',#336,#362,#74,.T.);
#324=EDGE_CURVE('',#336,#347,#75,.T.);
#325=EDGE_CURVE('',#327,#350,#76,.T.);
#326=EDGE_CURVE('',#327,#369,#77,.T.);
#327=VERTEX_POINT('',#875);
#328=VERTEX_POINT('',#876);
#329=VERTEX_POINT('',#878);
#330=VERTEX_POINT('',#880);
#331=VERTEX_POINT('',#882);
#332=VERTEX_POINT('',#884);
#333=VERTEX_POINT('',#886);
#334=VERTEX_POINT('',#888);
#335=VERTEX_POINT('',#890);
#336=VERTEX_POINT('',#892);
#337=VERTEX_POINT('',#896);
#338=VERTEX_POINT('',#897);
#339=VERTEX_POINT('',#899);
#340=VERTEX_POINT('',#901);
#341=VERTEX_POINT('',#905);
#342=VERTEX_POINT('',#906);
#343=VERTEX_POINT('',#908);
#344=VERTEX_POINT('',#910);
#345=VERTEX_POINT('',#912);
#346=VERTEX_POINT('',#914);
#347=VERTEX_POINT('',#918);
#348=VERTEX_POINT('',#919);
#349=VERTEX_POINT('',#921);
#350=VERTEX_POINT('',#923);
#351=VERTEX_POINT('',#927);
#352=VERTEX_POINT('',#928);
#353=VERTEX_POINT('',#930);
#354=VERTEX_POINT('',#932);
#355=VERTEX_POINT('',#936);
#356=VERTEX_POINT('',#937);
#357=VERTEX_POINT('',#939);
#358=VERTEX_POINT('',#941);
#359=VERTEX_POINT('',#945);
#360=VERTEX_POINT('',#946);
#361=VERTEX_POINT('',#948);
#362=VERTEX_POINT('',#950);
#363=VERTEX_POINT('',#954);
#364=VERTEX_POINT('',#956);
#365=VERTEX_POINT('',#961);
#366=VERTEX_POINT('',#963);
#367=VERTEX_POINT('',#965);
#368=VERTEX_POINT('',#967);
#369=VERTEX_POINT('',#971);
#370=VERTEX_POINT('',#972);
#371=VERTEX_POINT('',#983);
#372=VERTEX_POINT('',#1003);
#373=VERTEX_POINT('',#1019);
#374=VERTEX_POINT('',#1021);
#375=LINE('',#874,#418);
#376=LINE('',#877,#419);
#377=LINE('',#879,#420);
#378=LINE('',#883,#421);
#379=LINE('',#887,#422);
#380=LINE('',#889,#423);
#381=LINE('',#891,#424);
#382=LINE('',#893,#425);
#383=LINE('',#895,#426);
#384=LINE('',#898,#427);
#385=LINE('',#900,#428);
#386=LINE('',#902,#429);
#387=LINE('',#904,#430);
#388=LINE('',#907,#431);
#389=LINE('',#909,#432);
#390=LINE('',#913,#433);
#391=LINE('',#917,#434);
#392=LINE('',#920,#435);
#393=LINE('',#922,#436);
#394=LINE('',#924,#437);
#395=LINE('',#926,#438);
#396=LINE('',#929,#439);
#397=LINE('',#931,#440);
#398=LINE('',#933,#441);
#399=LINE('',#935,#442);
#400=LINE('',#938,#443);
#401=LINE('',#940,#444);
#402=LINE('',#942,#445);
#403=LINE('',#944,#446);
#404=LINE('',#947,#447);
#405=LINE('',#949,#448);
#406=LINE('',#951,#449);
#407=LINE('',#953,#450);
#408=LINE('',#955,#451);
#409=LINE('',#962,#452);
#410=LINE('',#966,#453);
#411=LINE('',#968,#454);
#412=LINE('',#970,#455);
#413=LINE('',#973,#456);
#414=LINE('',#974,#457);
#415=LINE('',#1018,#458);
#416=LINE('',#1020,#459);
#417=LINE('',#1022,#460);
#418=VECTOR('',#677,1.);
#419=VECTOR('',#678,1.);
#420=VECTOR('',#679,1.);
#421=VECTOR('',#682,1.);
#422=VECTOR('',#685,1.);
#423=VECTOR('',#686,1.);
#424=VECTOR('',#687,1.);
#425=VECTOR('',#688,1.);
#426=VECTOR('',#691,1.);
#427=VECTOR('',#692,1.);
#428=VECTOR('',#693,1.);
#429=VECTOR('',#694,1.);
#430=VECTOR('',#697,1.);
#431=VECTOR('',#698,1.);
#432=VECTOR('',#699,1.);
#433=VECTOR('',#702,1.);
#434=VECTOR('',#707,1.);
#435=VECTOR('',#708,1.);
#436=VECTOR('',#709,1.);
#437=VECTOR('',#710,1.);
#438=VECTOR('',#713,1.);
#439=VECTOR('',#714,1.);
#440=VECTOR('',#715,1.);
#441=VECTOR('',#716,1.);
#442=VECTOR('',#719,1.);
#443=VECTOR('',#720,1.);
#444=VECTOR('',#721,1.);
#445=VECTOR('',#722,1.);
#446=VECTOR('',#725,1.);
#447=VECTOR('',#726,1.);
#448=VECTOR('',#727,1.);
#449=VECTOR('',#728,1.);
#450=VECTOR('',#731,1.);
#451=VECTOR('',#732,1.);
#452=VECTOR('',#741,1.);
#453=VECTOR('',#744,1.);
#454=VECTOR('',#745,1.);
#455=VECTOR('',#748,1.);
#456=VECTOR('',#749,1.);
#457=VECTOR('',#750,1.);
#458=VECTOR('',#833,1.);
#459=VECTOR('',#834,1.);
#460=VECTOR('',#835,1.);
#461=EDGE_LOOP('',(#78,#79,#80,#81,#82,#83,#84,#85,#86,#87));
#462=EDGE_LOOP('',(#88,#89,#90,#91));
#463=EDGE_LOOP('',(#92,#93,#94,#95,#96,#97));
#464=EDGE_LOOP('',(#98,#99,#100,#101));
#465=EDGE_LOOP('',(#102,#103,#104,#105));
#466=EDGE_LOOP('',(#106,#107,#108,#109));
#467=EDGE_LOOP('',(#110,#111,#112,#113));
#468=EDGE_LOOP('',(#114,#115,#116,#117,#118,#119));
#469=EDGE_LOOP('',(#120,#121,#122,#123,#124,#125));
#470=EDGE_LOOP('',(#126,#127,#128,#129));
#471=EDGE_LOOP('',(#130,#131,#132,#133));
#472=EDGE_LOOP('',(#134,#135,#136,#137));
#473=EDGE_LOOP('',(#138,#139,#140,#141,#142));
#474=EDGE_LOOP('',(#143,#144,#145,#146,#147));
#475=EDGE_LOOP('',(#148,#149,#150,#151));
#476=EDGE_LOOP('',(#152,#153,#154,#155));
#477=EDGE_LOOP('',(#156,#157,#158,#159));
#478=EDGE_LOOP('',(#160,#161,#162,#163));
#479=EDGE_LOOP('',(#164,#165,#166,#167));
#480=EDGE_LOOP('',(#168,#169,#170,#171));
#481=EDGE_LOOP('',(#172,#173,#174,#175,#176));
#482=EDGE_LOOP('',(#177,#178,#179,#180));
#483=EDGE_LOOP('',(#181,#182,#183,#184,#185));
#484=EDGE_LOOP('',(#186,#187,#188,#189));
#485=EDGE_LOOP('',(#190,#191,#192,#193));
#486=EDGE_LOOP('',(#194,#195,#196,#197));
#487=EDGE_LOOP('',(#198,#199,#200,#201,#202,#203,#204,#205,#206,#207));
#488=EDGE_LOOP('',(#208,#209,#210,#211));
#489=EDGE_LOOP('',(#212,#213,#214));
#490=EDGE_LOOP('',(#215,#216,#217,#218));
#491=EDGE_LOOP('',(#219,#220,#221));
#492=EDGE_LOOP('',(#222,#223,#224,#225));
#493=EDGE_LOOP('',(#226,#227,#228,#229));
#494=EDGE_LOOP('',(#230,#231,#232));
#495=EDGE_LOOP('',(#233,#234,#235,#236));
#496=EDGE_LOOP('',(#237,#238,#239));
#497=EDGE_LOOP('',(#240,#241,#242,#243));
#498=FACE_BOUND('',#461,.T.);
#499=FACE_BOUND('',#462,.T.);
#500=FACE_BOUND('',#463,.T.);
#501=FACE_BOUND('',#464,.T.);
#502=FACE_BOUND('',#465,.T.);
#503=FACE_BOUND('',#466,.T.);
#504=FACE_BOUND('',#467,.T.);
#505=FACE_BOUND('',#468,.T.);
#506=FACE_BOUND('',#469,.T.);
#507=FACE_BOUND('',#470,.T.);
#508=FACE_BOUND('',#471,.T.);
#509=FACE_BOUND('',#472,.T.);
#510=FACE_BOUND('',#473,.T.);
#511=FACE_BOUND('',#474,.T.);
#512=FACE_BOUND('',#475,.T.);
#513=FACE_BOUND('',#476,.T.);
#514=FACE_BOUND('',#477,.T.);
#515=FACE_BOUND('',#478,.T.);
#516=FACE_BOUND('',#479,.T.);
#517=FACE_BOUND('',#480,.T.);
#518=FACE_BOUND('',#481,.T.);
#519=FACE_BOUND('',#482,.T.);
#520=FACE_BOUND('',#483,.T.);
#521=FACE_BOUND('',#484,.T.);
#522=FACE_BOUND('',#485,.T.);
#523=FACE_BOUND('',#486,.T.);
#524=FACE_BOUND('',#487,.T.);
#525=FACE_BOUND('',#488,.T.);
#526=FACE_BOUND('',#489,.T.);
#527=FACE_BOUND('',#490,.T.);
#528=FACE_BOUND('',#491,.T.);
#529=FACE_BOUND('',#492,.T.);
#530=FACE_BOUND('',#493,.T.);
#531=FACE_BOUND('',#494,.T.);
#532=FACE_BOUND('',#495,.T.);
#533=FACE_BOUND('',#496,.T.);
#534=FACE_BOUND('',#497,.T.);
#535=PLANE('',#596);
#536=PLANE('',#599);
#537=PLANE('',#600);
#538=PLANE('',#603);
#539=PLANE('',#604);
#540=PLANE('',#605);
#541=PLANE('',#606);
#542=PLANE('',#607);
#543=PLANE('',#610);
#544=PLANE('',#613);
#545=PLANE('',#654);
#546=ADVANCED_FACE('',(#498),#535,.T.);
#547=ADVANCED_FACE('',(#499),#536,.F.);
#548=ADVANCED_FACE('',(#500),#537,.F.);
#549=ADVANCED_FACE('',(#501),#538,.F.);
#550=ADVANCED_FACE('',(#502),#539,.T.);
#551=ADVANCED_FACE('',(#503),#540,.T.);
#552=ADVANCED_FACE('',(#504),#541,.F.);
#553=ADVANCED_FACE('',(#505),#542,.F.);
#554=ADVANCED_FACE('',(#506),#543,.F.);
#555=ADVANCED_FACE('',(#507),#544,.T.);
#556=ADVANCED_FACE('',(#508),#20,.T.);
#557=ADVANCED_FACE('',(#509),#21,.T.);
#558=ADVANCED_FACE('',(#510),#22,.T.);
#559=ADVANCED_FACE('',(#511),#23,.T.);
#560=ADVANCED_FACE('',(#512),#16,.T.);
#561=ADVANCED_FACE('',(#513),#24,.T.);
#562=ADVANCED_FACE('',(#514),#25,.T.);
#563=ADVANCED_FACE('',(#515),#17,.T.);
#564=ADVANCED_FACE('',(#516),#18,.T.);
#565=ADVANCED_FACE('',(#517),#26,.T.);
#566=ADVANCED_FACE('',(#518),#27,.T.);
#567=ADVANCED_FACE('',(#519),#19,.T.);
#568=ADVANCED_FACE('',(#520),#28,.T.);
#569=ADVANCED_FACE('',(#521),#29,.T.);
#570=ADVANCED_FACE('',(#522),#30,.T.);
#571=ADVANCED_FACE('',(#523),#31,.T.);
#572=ADVANCED_FACE('',(#524),#545,.F.);
#573=ADVANCED_FACE('',(#525),#32,.T.);
#574=ADVANCED_FACE('',(#526),#12,.T.);
#575=ADVANCED_FACE('',(#527),#33,.T.);
#576=ADVANCED_FACE('',(#528),#13,.T.);
#577=ADVANCED_FACE('',(#529),#34,.T.);
#578=ADVANCED_FACE('',(#530),#35,.T.);
#579=ADVANCED_FACE('',(#531),#14,.T.);
#580=ADVANCED_FACE('',(#532),#36,.T.);
#581=ADVANCED_FACE('',(#533),#15,.T.);
#582=ADVANCED_FACE('',(#534),#37,.T.);
#583=CLOSED_SHELL('',(#546,#547,#548,#549,#550,#551,#552,#553,#554,#555,
#556,#557,#558,#559,#560,#561,#562,#563,#564,#565,#566,#567,#568,#569,#570,
#571,#572,#573,#574,#575,#576,#577,#578,#579,#580,#581,#582));
#584=STYLED_ITEM('',(#585),#592);
#585=PRESENTATION_STYLE_ASSIGNMENT((#586));
#586=SURFACE_STYLE_USAGE(.BOTH.,#587);
#587=SURFACE_SIDE_STYLE('',(#588));
#588=SURFACE_STYLE_FILL_AREA(#589);
#589=FILL_AREA_STYLE('',(#590));
#590=FILL_AREA_STYLE_COLOUR('',#591);
#591=COLOUR_RGB('',0.917647058823529,0.917647058823529,0.917647058823529);
#592=MANIFOLD_SOLID_BREP('Part Light Guide',#583);
#593=SHAPE_DEFINITION_REPRESENTATION(#1047,#594);
#594=SHAPE_REPRESENTATION('Part Light Guide',(#595),#1042);
#595=AXIS2_PLACEMENT_3D('',#872,#673,#674);
#596=AXIS2_PLACEMENT_3D('',#873,#675,#676);
#597=AXIS2_PLACEMENT_3D('',#881,#680,#681);
#598=AXIS2_PLACEMENT_3D('',#885,#683,#684);
#599=AXIS2_PLACEMENT_3D('',#894,#689,#690);
#600=AXIS2_PLACEMENT_3D('',#903,#695,#696);
#601=AXIS2_PLACEMENT_3D('',#911,#700,#701);
#602=AXIS2_PLACEMENT_3D('',#915,#703,#704);
#603=AXIS2_PLACEMENT_3D('',#916,#705,#706);
#604=AXIS2_PLACEMENT_3D('',#925,#711,#712);
#605=AXIS2_PLACEMENT_3D('',#934,#717,#718);
#606=AXIS2_PLACEMENT_3D('',#943,#723,#724);
#607=AXIS2_PLACEMENT_3D('',#952,#729,#730);
#608=AXIS2_PLACEMENT_3D('',#957,#733,#734);
#609=AXIS2_PLACEMENT_3D('',#958,#735,#736);
#610=AXIS2_PLACEMENT_3D('',#959,#737,#738);
#611=AXIS2_PLACEMENT_3D('',#960,#739,#740);
#612=AXIS2_PLACEMENT_3D('',#964,#742,#743);
#613=AXIS2_PLACEMENT_3D('',#969,#746,#747);
#614=AXIS2_PLACEMENT_3D('',#975,#751,#752);
#615=AXIS2_PLACEMENT_3D('',#976,#753,#754);
#616=AXIS2_PLACEMENT_3D('',#977,#755,#756);
#617=AXIS2_PLACEMENT_3D('',#978,#757,#758);
#618=AXIS2_PLACEMENT_3D('',#979,#759,#760);
#619=AXIS2_PLACEMENT_3D('',#980,#761,#762);
#620=AXIS2_PLACEMENT_3D('',#981,#763,#764);
#621=AXIS2_PLACEMENT_3D('',#982,#765,#766);
#622=AXIS2_PLACEMENT_3D('',#984,#767,#768);
#623=AXIS2_PLACEMENT_3D('',#985,#769,#770);
#624=AXIS2_PLACEMENT_3D('',#986,#771,#772);
#625=AXIS2_PLACEMENT_3D('',#987,#773,#774);
#626=AXIS2_PLACEMENT_3D('',#988,#775,#776);
#627=AXIS2_PLACEMENT_3D('',#989,#777,#778);
#628=AXIS2_PLACEMENT_3D('',#990,#779,#780);
#629=AXIS2_PLACEMENT_3D('',#991,#781,#782);
#630=AXIS2_PLACEMENT_3D('',#992,#783,#784);
#631=AXIS2_PLACEMENT_3D('',#993,#785,#786);
#632=AXIS2_PLACEMENT_3D('',#994,#787,#788);
#633=AXIS2_PLACEMENT_3D('',#995,#789,#790);
#634=AXIS2_PLACEMENT_3D('',#996,#791,#792);
#635=AXIS2_PLACEMENT_3D('',#997,#793,#794);
#636=AXIS2_PLACEMENT_3D('',#998,#795,#796);
#637=AXIS2_PLACEMENT_3D('',#999,#797,#798);
#638=AXIS2_PLACEMENT_3D('',#1000,#799,#800);
#639=AXIS2_PLACEMENT_3D('',#1001,#801,#802);
#640=AXIS2_PLACEMENT_3D('',#1002,#803,#804);
#641=AXIS2_PLACEMENT_3D('',#1004,#805,#806);
#642=AXIS2_PLACEMENT_3D('',#1005,#807,#808);
#643=AXIS2_PLACEMENT_3D('',#1006,#809,#810);
#644=AXIS2_PLACEMENT_3D('',#1007,#811,#812);
#645=AXIS2_PLACEMENT_3D('',#1008,#813,#814);
#646=AXIS2_PLACEMENT_3D('',#1009,#815,#816);
#647=AXIS2_PLACEMENT_3D('',#1010,#817,#818);
#648=AXIS2_PLACEMENT_3D('',#1011,#819,#820);
#649=AXIS2_PLACEMENT_3D('',#1012,#821,#822);
#650=AXIS2_PLACEMENT_3D('',#1013,#823,#824);
#651=AXIS2_PLACEMENT_3D('',#1014,#825,#826);
#652=AXIS2_PLACEMENT_3D('',#1015,#827,#828);
#653=AXIS2_PLACEMENT_3D('',#1016,#829,#830);
#654=AXIS2_PLACEMENT_3D('',#1017,#831,#832);
#655=AXIS2_PLACEMENT_3D('',#1023,#836,#837);
#656=AXIS2_PLACEMENT_3D('',#1024,#838,#839);
#657=AXIS2_PLACEMENT_3D('',#1025,#840,#841);
#658=AXIS2_PLACEMENT_3D('',#1026,#842,#843);
#659=AXIS2_PLACEMENT_3D('',#1027,#844,#845);
#660=AXIS2_PLACEMENT_3D('',#1028,#846,#847);
#661=AXIS2_PLACEMENT_3D('',#1029,#848,#849);
#662=AXIS2_PLACEMENT_3D('',#1030,#850,#851);
#663=AXIS2_PLACEMENT_3D('',#1031,#852,#853);
#664=AXIS2_PLACEMENT_3D('',#1032,#854,#855);
#665=AXIS2_PLACEMENT_3D('',#1033,#856,#857);
#666=AXIS2_PLACEMENT_3D('',#1034,#858,#859);
#667=AXIS2_PLACEMENT_3D('',#1035,#860,#861);
#668=AXIS2_PLACEMENT_3D('',#1036,#862,#863);
#669=AXIS2_PLACEMENT_3D('',#1037,#864,#865);
#670=AXIS2_PLACEMENT_3D('',#1038,#866,#867);
#671=AXIS2_PLACEMENT_3D('',#1039,#868,#869);
#672=AXIS2_PLACEMENT_3D('',#1040,#870,#871);
#673=DIRECTION('',(0.,0.,1.));
#674=DIRECTION('',(1.,0.,0.));
#675=DIRECTION('',(0.,1.,0.));
#676=DIRECTION('',(0.,0.,1.));
#677=DIRECTION('',(0.,0.,1.));
#678=DIRECTION('',(1.,0.,0.));
#679=DIRECTION('',(0.,0.,-1.));
#680=DIRECTION('',(0.,1.,0.));
#681=DIRECTION('',(0.,0.,1.));
#682=DIRECTION('',(1.,0.,0.));
#683=DIRECTION('',(0.,1.,0.));
#684=DIRECTION('',(0.,0.,1.));
#685=DIRECTION('',(0.,0.,-1.));
#686=DIRECTION('',(1.,0.,0.));
#687=DIRECTION('',(0.,0.,1.));
#688=DIRECTION('',(1.,0.,0.));
#689=DIRECTION('',(1.,0.,0.));
#690=DIRECTION('',(0.,0.,-1.));
#691=DIRECTION('',(0.,-1.,0.));
#692=DIRECTION('',(0.,0.,-1.));
#693=DIRECTION('',(0.,-1.,0.));
#694=DIRECTION('',(0.,0.,-1.));
#695=DIRECTION('',(0.,1.,0.));
#696=DIRECTION('',(0.,0.,1.));
#697=DIRECTION('',(0.,0.,-1.));
#698=DIRECTION('',(1.,0.,0.));
#699=DIRECTION('',(0.,0.,-1.));
#700=DIRECTION('',(0.,1.,0.));
#701=DIRECTION('',(0.,0.,1.));
#702=DIRECTION('',(1.,0.,0.));
#703=DIRECTION('',(0.,1.,0.));
#704=DIRECTION('',(0.,0.,1.));
#705=DIRECTION('',(0.,0.,1.));
#706=DIRECTION('',(1.,0.,0.));
#707=DIRECTION('',(0.,-1.,0.));
#708=DIRECTION('',(1.,0.,0.));
#709=DIRECTION('',(0.,-1.,0.));
#710=DIRECTION('',(1.,0.,0.));
#711=DIRECTION('',(1.,0.,0.));
#712=DIRECTION('',(0.,0.,-1.));
#713=DIRECTION('',(0.,-1.,0.));
#714=DIRECTION('',(0.,0.,-1.));
#715=DIRECTION('',(0.,-1.,0.));
#716=DIRECTION('',(0.,0.,-1.));
#717=DIRECTION('',(0.,0.,1.));
#718=DIRECTION('',(1.,0.,0.));
#719=DIRECTION('',(0.,-1.,0.));
#720=DIRECTION('',(1.,0.,0.));
#721=DIRECTION('',(0.,-1.,0.));
#722=DIRECTION('',(1.,0.,0.));
#723=DIRECTION('',(-1.,0.,0.));
#724=DIRECTION('',(0.,0.,1.));
#725=DIRECTION('',(3.40141858034668E-16,-1.,0.));
#726=DIRECTION('',(0.,-0.0623782861551802,0.998052578482889));
#727=DIRECTION('',(0.,-1.,0.));
#728=DIRECTION('',(0.,0.,1.));
#729=DIRECTION('',(0.,0.,1.));
#730=DIRECTION('',(1.,0.,0.));
#731=DIRECTION('',(0.,1.,0.));
#732=DIRECTION('',(1.,0.,0.));
#733=DIRECTION('',(0.,0.,1.));
#734=DIRECTION('',(0.,1.,0.));
#735=DIRECTION('',(0.,0.,1.));
#736=DIRECTION('',(1.,0.,0.));
#737=DIRECTION('',(0.,0.,1.));
#738=DIRECTION('',(1.,0.,0.));
#739=DIRECTION('',(0.,0.,1.));
#740=DIRECTION('',(1.,0.,0.));
#741=DIRECTION('',(3.40141858034668E-16,-1.,0.));
#742=DIRECTION('',(0.,0.,1.));
#743=DIRECTION('',(0.,1.,0.));
#744=DIRECTION('',(1.,0.,0.));
#745=DIRECTION('',(0.,1.,0.));
#746=DIRECTION('',(-1.,0.,0.));
#747=DIRECTION('',(0.,0.,1.));
#748=DIRECTION('',(0.,-1.,0.));
#749=DIRECTION('',(0.,0.0623782861551802,-0.998052578482889));
#750=DIRECTION('',(0.,0.,1.));
#751=DIRECTION('',(0.,-1.,0.));
#752=DIRECTION('',(0.,0.,-1.));
#753=DIRECTION('',(0.,1.,0.));
#754=DIRECTION('',(0.,0.,1.));
#755=DIRECTION('',(0.,1.,0.));
#756=DIRECTION('',(0.,0.,1.));
#757=DIRECTION('',(0.,1.,0.));
#758=DIRECTION('',(0.,0.,1.));
#759=DIRECTION('',(0.,1.,0.));
#760=DIRECTION('',(0.,0.,1.));
#761=DIRECTION('',(0.,1.,0.));
#762=DIRECTION('',(0.,0.,1.));
#763=DIRECTION('',(0.,0.,1.));
#764=DIRECTION('',(1.,0.,0.));
#765=DIRECTION('',(0.,0.998052578482889,0.0623782861551802));
#766=DIRECTION('',(0.,-0.0623782861551802,0.998052578482889));
#767=DIRECTION('',(0.,0.707106781186548,-0.707106781186548));
#768=DIRECTION('',(0.,0.707106781186548,0.707106781186548));
#769=DIRECTION('',(0.,0.,1.));
#770=DIRECTION('',(1.,0.,0.));
#771=DIRECTION('',(0.,1.,0.));
#772=DIRECTION('',(0.,0.,1.));
#773=DIRECTION('',(0.,0.998052578482889,0.0623782861551802));
#774=DIRECTION('',(0.,0.0623782861551802,-0.998052578482889));
#775=DIRECTION('',(0.,0.707106781186548,0.707106781186548));
#776=DIRECTION('',(0.,0.707106781186548,-0.707106781186548));
#777=DIRECTION('',(0.,1.,0.));
#778=DIRECTION('',(0.,0.,1.));
#779=DIRECTION('',(-1.,0.,0.));
#780=DIRECTION('',(0.,0.,1.));
#781=DIRECTION('',(0.,0.,-1.));
#782=DIRECTION('',(-1.,0.,0.));
#783=DIRECTION('',(0.,0.,1.));
#784=DIRECTION('',(1.,0.,0.));
#785=DIRECTION('',(-1.,0.,0.));
#786=DIRECTION('',(0.,0.,1.));
#787=DIRECTION('',(-1.,0.,0.));
#788=DIRECTION('',(0.,0.,1.));
#789=DIRECTION('',(0.,1.,0.));
#790=DIRECTION('',(0.,0.,1.));
#791=DIRECTION('',(-1.,0.,0.));
#792=DIRECTION('',(0.,0.,1.));
#793=DIRECTION('',(0.,1.,0.));
#794=DIRECTION('',(0.,0.,1.));
#795=DIRECTION('',(0.,0.,-1.));
#796=DIRECTION('',(-1.,0.,0.));
#797=DIRECTION('',(1.,0.,0.));
#798=DIRECTION('',(0.,0.,-1.));
#799=DIRECTION('',(-1.,0.,0.));
#800=DIRECTION('',(0.,0.,1.));
#801=DIRECTION('',(0.,0.,-1.));
#802=DIRECTION('',(-1.,0.,0.));
#803=DIRECTION('',(0.,-0.707106781186548,0.707106781186548));
#804=DIRECTION('',(0.,-0.707106781186548,-0.707106781186548));
#805=DIRECTION('',(0.,0.998052578482889,0.0623782861551802));
#806=DIRECTION('',(0.,0.0623782861551802,-0.998052578482889));
#807=DIRECTION('',(0.,1.,0.));
#808=DIRECTION('',(0.,0.,1.));
#809=DIRECTION('',(0.,0.,-1.));
#810=DIRECTION('',(-1.,0.,0.));
#811=DIRECTION('',(0.,-1.,0.));
#812=DIRECTION('',(0.,0.,-1.));
#813=DIRECTION('',(0.,0.998052578482889,0.0623782861551802));
#814=DIRECTION('',(0.,-0.0623782861551802,0.998052578482889));
#815=DIRECTION('',(0.,-0.707106781186548,-0.707106781186548));
#816=DIRECTION('',(0.,-0.707106781186548,0.707106781186548));
#817=DIRECTION('',(0.,0.,1.));
#818=DIRECTION('',(1.,0.,0.));
#819=DIRECTION('',(0.,1.,0.));
#820=DIRECTION('',(0.,0.,1.));
#821=DIRECTION('',(0.,1.,0.));
#822=DIRECTION('',(0.,0.,1.));
#823=DIRECTION('',(0.,1.,0.));
#824=DIRECTION('',(0.,0.,1.));
#825=DIRECTION('',(0.,-1.,0.));
#826=DIRECTION('',(0.,0.,-1.));
#827=DIRECTION('',(0.,-1.,0.));
#828=DIRECTION('',(0.,0.,-1.));
#829=DIRECTION('',(0.,-1.,0.));
#830=DIRECTION('',(0.,0.,-1.));
#831=DIRECTION('',(0.,0.998052578482889,0.0623782861551802));
#832=DIRECTION('',(1.,0.,0.));
#833=DIRECTION('',(0.,0.0623782861551802,-0.998052578482889));
#834=DIRECTION('',(0.,-0.0623782861551802,0.998052578482889));
#835=DIRECTION('',(-1.,0.,0.));
#836=DIRECTION('',(0.,0.0623782861551802,-0.998052578482889));
#837=DIRECTION('',(0.,0.998052578482889,0.0623782861551802));
#838=DIRECTION('',(-1.08209077384632E-15,0.0623782861551784,-0.998052578482889));
#839=DIRECTION('',(0.,0.998052578482889,0.0623782861551784));
#840=DIRECTION('',(0.,-0.998052578482889,-0.0623782861551802));
#841=DIRECTION('',(0.,0.0623782861551802,-0.998052578482889));
#842=DIRECTION('',(1.,0.,0.));
#843=DIRECTION('',(0.,0.,-1.));
#844=DIRECTION('',(-1.,0.,0.));
#845=DIRECTION('',(0.,0.,1.));
#846=DIRECTION('',(1.,0.,0.));
#847=DIRECTION('',(0.,0.,-1.));
#848=DIRECTION('',(0.,-0.998052578482889,-0.0623782861551802));
#849=DIRECTION('',(0.,0.0623782861551802,-0.998052578482889));
#850=DIRECTION('',(-4.32836309538362E-15,-0.0623782861551784,0.998052578482889));
#851=DIRECTION('',(0.,-0.998052578482889,-0.0623782861551784));
#852=DIRECTION('',(0.,0.0623782861551802,-0.998052578482889));
#853=DIRECTION('',(0.,0.998052578482889,0.0623782861551802));
#854=DIRECTION('',(0.,0.,-1.));
#855=DIRECTION('',(-1.,0.,0.));
#856=DIRECTION('',(0.,0.,-1.));
#857=DIRECTION('',(-1.,0.,0.));
#858=DIRECTION('',(0.,1.,0.));
#859=DIRECTION('',(0.,0.,1.));
#860=DIRECTION('',(-1.,0.,0.));
#861=DIRECTION('',(0.,0.,1.));
#862=DIRECTION('',(-1.,0.,0.));
#863=DIRECTION('',(0.,0.,1.));
#864=DIRECTION('',(-1.,0.,0.));
#865=DIRECTION('',(0.,0.,1.));
#866=DIRECTION('',(0.,1.,0.));
#867=DIRECTION('',(0.,0.,1.));
#868=DIRECTION('',(0.,0.,1.));
#869=DIRECTION('',(1.,0.,0.));
#870=DIRECTION('',(0.,0.,1.));
#871=DIRECTION('',(1.,0.,0.));
#872=CARTESIAN_POINT('',(0.,0.,0.));
#873=CARTESIAN_POINT('',(0.,-0.0238747392222174,0.026));
#874=CARTESIAN_POINT('',(-0.0093,-0.0238747392222174,0.026));
#875=CARTESIAN_POINT('',(-0.0093,-0.0238747392222174,0.0062));
#876=CARTESIAN_POINT('',(-0.0093,-0.0238747392222174,0.0075));
#877=CARTESIAN_POINT('',(0.,-0.0238747392222174,0.0075));
#878=CARTESIAN_POINT('',(-0.0108,-0.0238747392222174,0.0075));
#879=CARTESIAN_POINT('',(-0.0108,-0.0238747392222174,0.021));
#880=CARTESIAN_POINT('',(-0.0108,-0.0238747392222174,0.021));
#881=CARTESIAN_POINT('',(-0.006,-0.0238747392222174,0.021));
#882=CARTESIAN_POINT('',(-0.006,-0.0238747392222174,0.0258));
#883=CARTESIAN_POINT('',(0.,-0.0238747392222174,0.0258));
#884=CARTESIAN_POINT('',(0.006,-0.0238747392222174,0.0258));
#885=CARTESIAN_POINT('',(0.006,-0.0238747392222174,0.021));
#886=CARTESIAN_POINT('',(0.0108,-0.0238747392222174,0.021));
#887=CARTESIAN_POINT('',(0.0108,-0.0238747392222174,0.026));
#888=CARTESIAN_POINT('',(0.0108,-0.0238747392222174,0.0075));
#889=CARTESIAN_POINT('',(0.,-0.0238747392222174,0.0075));
#890=CARTESIAN_POINT('',(0.0093,-0.0238747392222174,0.0075));
#891=CARTESIAN_POINT('',(0.0093,-0.0238747392222174,0.0062));
#892=CARTESIAN_POINT('',(0.0093,-0.0238747392222174,0.0062));
#893=CARTESIAN_POINT('',(-0.0093,-0.0238747392222174,0.0062));
#894=CARTESIAN_POINT('',(-0.011,-0.0263747392222173,0.026));
#895=CARTESIAN_POINT('',(-0.011,-0.0238747392222174,0.021));
#896=CARTESIAN_POINT('',(-0.011,-0.0286747392222173,0.021));
#897=CARTESIAN_POINT('',(-0.011,-0.0240747392222173,0.021));
#898=CARTESIAN_POINT('',(-0.011,-0.0240747392222173,0.0073));
#899=CARTESIAN_POINT('',(-0.011,-0.0240747392222173,0.0077));
#900=CARTESIAN_POINT('',(-0.011,-0.0263747392222173,0.0077));
#901=CARTESIAN_POINT('',(-0.011,-0.0286747392222173,0.0077));
#902=CARTESIAN_POINT('',(-0.011,-0.0286747392222173,0.026));
#903=CARTESIAN_POINT('',(0.,-0.0288747392222173,0.026));
#904=CARTESIAN_POINT('',(-0.0108,-0.0288747392222173,0.026));
#905=CARTESIAN_POINT('',(-0.0108,-0.0288747392222173,0.021));
#906=CARTESIAN_POINT('',(-0.0108,-0.0288747392222173,0.0076));
#907=CARTESIAN_POINT('',(0.,-0.0288747392222173,0.0076));
#908=CARTESIAN_POINT('',(0.0108,-0.0288747392222173,0.0076));
#909=CARTESIAN_POINT('',(0.0108,-0.0288747392222173,0.021));
#910=CARTESIAN_POINT('',(0.0108,-0.0288747392222173,0.021));
#911=CARTESIAN_POINT('',(0.006,-0.0288747392222173,0.021));
#912=CARTESIAN_POINT('',(0.006,-0.0288747392222173,0.0258));
#913=CARTESIAN_POINT('',(-0.006,-0.0288747392222173,0.0258));
#914=CARTESIAN_POINT('',(-0.006,-0.0288747392222173,0.0258));
#915=CARTESIAN_POINT('',(-0.006,-0.0288747392222173,0.021));
#916=CARTESIAN_POINT('',(0.,-0.0189247392222174,0.006));
#917=CARTESIAN_POINT('',(0.0093,-0.0189247392222174,0.006));
#918=CARTESIAN_POINT('',(0.0093,-0.0240747392222173,0.006));
#919=CARTESIAN_POINT('',(0.0093,-0.0285868489779438,0.006));
#920=CARTESIAN_POINT('',(-0.0093,-0.0285868489779438,0.006));
#921=CARTESIAN_POINT('',(-0.0093,-0.0285868489779438,0.006));
#922=CARTESIAN_POINT('',(-0.0093,-0.0238747392222174,0.006));
#923=CARTESIAN_POINT('',(-0.0093,-0.0240747392222173,0.006));
#924=CARTESIAN_POINT('',(0.0093,-0.0240747392222173,0.006));
#925=CARTESIAN_POINT('',(0.011,-0.0263747392222173,0.026));
#926=CARTESIAN_POINT('',(0.011,-0.0238747392222174,0.0077));
#927=CARTESIAN_POINT('',(0.011,-0.0286747392222173,0.0077));
#928=CARTESIAN_POINT('',(0.011,-0.0240747392222173,0.0077));
#929=CARTESIAN_POINT('',(0.011,-0.0240747392222173,0.026));
#930=CARTESIAN_POINT('',(0.011,-0.0240747392222173,0.021));
#931=CARTESIAN_POINT('',(0.011,-0.0263747392222173,0.021));
#932=CARTESIAN_POINT('',(0.011,-0.0286747392222173,0.021));
#933=CARTESIAN_POINT('',(0.011,-0.0286747392222173,0.0073));
#934=CARTESIAN_POINT('',(0.,-0.0189247392222174,0.026));
#935=CARTESIAN_POINT('',(0.006,-0.0189247392222174,0.026));
#936=CARTESIAN_POINT('',(0.006,-0.0286747392222173,0.026));
#937=CARTESIAN_POINT('',(0.006,-0.0240747392222173,0.026));
#938=CARTESIAN_POINT('',(0.,-0.0240747392222173,0.026));
#939=CARTESIAN_POINT('',(-0.006,-0.0240747392222173,0.026));
#940=CARTESIAN_POINT('',(-0.006,-0.0288747392222173,0.026));
#941=CARTESIAN_POINT('',(-0.006,-0.0286747392222173,0.026));
#942=CARTESIAN_POINT('',(0.006,-0.0286747392222173,0.026));
#943=CARTESIAN_POINT('',(0.0095,-0.259742360357549,0.0039));
#944=CARTESIAN_POINT('',(0.0095,-0.0263747392222173,0.0075));
#945=CARTESIAN_POINT('',(0.0095,-0.0240747392222173,0.0075));
#946=CARTESIAN_POINT('',(0.0095,-0.0286680989779438,0.0075));
#947=CARTESIAN_POINT('',(0.0095,-0.0285876287065207,0.00621247565723104));
#948=CARTESIAN_POINT('',(0.0095,-0.0285868489779438,0.0062));
#949=CARTESIAN_POINT('',(0.0095,-0.259742360357549,0.0062));
#950=CARTESIAN_POINT('',(0.0095,-0.0240747392222173,0.0062));
#951=CARTESIAN_POINT('',(0.0095,-0.0240747392222173,0.0075));
#952=CARTESIAN_POINT('',(0.011002,-0.0189247392222174,0.0075));
#953=CARTESIAN_POINT('',(0.0108,-0.0189247392222174,0.0075));
#954=CARTESIAN_POINT('',(0.0108,-0.0288684892222173,0.0075));
#955=CARTESIAN_POINT('',(0.,-0.0288684892222173,0.0075));
#956=CARTESIAN_POINT('',(0.0093,-0.0288684892222173,0.0075));
#957=CARTESIAN_POINT('',(0.0093,-0.0286680989779438,0.0075));
#958=CARTESIAN_POINT('',(0.0093,-0.0240747392222173,0.0075));
#959=CARTESIAN_POINT('',(0.011002,-0.0189247392222174,0.0075));
#960=CARTESIAN_POINT('',(-0.0093,-0.0240747392222173,0.0075));
#961=CARTESIAN_POINT('',(-0.0095,-0.0240747392222173,0.0075));
#962=CARTESIAN_POINT('',(-0.0095,-0.0263747392222173,0.0075));
#963=CARTESIAN_POINT('',(-0.0095,-0.0286680989779438,0.0075));
#964=CARTESIAN_POINT('',(-0.0093,-0.0286680989779438,0.0075));
#965=CARTESIAN_POINT('',(-0.0093,-0.0288684892222173,0.0075));
#966=CARTESIAN_POINT('',(0.,-0.0288684892222173,0.0075));
#967=CARTESIAN_POINT('',(-0.0108,-0.0288684892222173,0.0075));
#968=CARTESIAN_POINT('',(-0.0108,-0.0364247392222174,0.0075));
#969=CARTESIAN_POINT('',(-0.0095,-0.259742360357549,0.0039));
#970=CARTESIAN_POINT('',(-0.0095,-0.0288747392222173,0.0062));
#971=CARTESIAN_POINT('',(-0.0095,-0.0240747392222173,0.0062));
#972=CARTESIAN_POINT('',(-0.0095,-0.0285868489779438,0.0062));
#973=CARTESIAN_POINT('',(-0.0095,-0.0293430961039345,0.0182999540158508));
#974=CARTESIAN_POINT('',(-0.0095,-0.0240747392222173,0.0039));
#975=CARTESIAN_POINT('',(0.006,-0.0263747392222173,0.021));
#976=CARTESIAN_POINT('',(0.006,-0.0240747392222173,0.021));
#977=CARTESIAN_POINT('',(0.006,-0.0286747392222173,0.021));
#978=CARTESIAN_POINT('',(-0.006,-0.0189247392222174,0.021));
#979=CARTESIAN_POINT('',(-0.006,-0.0240747392222173,0.021));
#980=CARTESIAN_POINT('',(-0.006,-0.0286747392222173,0.021));
#981=CARTESIAN_POINT('',(0.0108,-0.0286747392222173,0.026));
#982=CARTESIAN_POINT('',(0.0108,-0.0286747392222173,0.0044));
#983=CARTESIAN_POINT('',(0.0108481491339522,-0.0288688568692762,0.00750588235294118));
#984=CARTESIAN_POINT('',(0.0108,-0.0286747392222173,0.0077));
#985=CARTESIAN_POINT('',(0.0108,-0.0286747392222173,0.021));
#986=CARTESIAN_POINT('',(0.0108,-0.0189247392222174,0.0077));
#987=CARTESIAN_POINT('',(0.0108,-0.0288809892222173,0.0077));
#988=CARTESIAN_POINT('',(0.0108,-0.0240747392222173,0.0077));
#989=CARTESIAN_POINT('',(0.006,-0.0286747392222173,0.021));
#990=CARTESIAN_POINT('',(0.006,-0.0286747392222173,0.0258));
#991=CARTESIAN_POINT('',(0.0108,-0.0240747392222173,0.026));
#992=CARTESIAN_POINT('',(0.0108,-0.0240747392222173,0.021));
#993=CARTESIAN_POINT('',(0.,-0.0286747392222173,0.0258));
#994=CARTESIAN_POINT('',(-0.006,-0.0286747392222173,0.0258));
#995=CARTESIAN_POINT('',(0.006,-0.0240747392222173,0.021));
#996=CARTESIAN_POINT('',(0.006,-0.0240747392222173,0.0258));
#997=CARTESIAN_POINT('',(-0.006,-0.0286747392222173,0.021));
#998=CARTESIAN_POINT('',(-0.0108,-0.0286747392222173,0.021));
#999=CARTESIAN_POINT('',(0.,-0.0240747392222173,0.0258));
#1000=CARTESIAN_POINT('',(-0.006,-0.0240747392222173,0.0258));
#1001=CARTESIAN_POINT('',(-0.0108,-0.0286747392222173,0.026));
#1002=CARTESIAN_POINT('',(-0.0108,-0.0286747392222173,0.0077));
#1003=CARTESIAN_POINT('',(-0.0108481491339522,-0.0288688568692762,0.00750588235294118));
#1004=CARTESIAN_POINT('',(-0.0108,-0.0286747392222173,0.0044));
#1005=CARTESIAN_POINT('',(-0.006,-0.0240747392222173,0.021));
#1006=CARTESIAN_POINT('',(-0.0108,-0.0240747392222173,0.021));
#1007=CARTESIAN_POINT('',(-0.0108,-0.0169623696111087,0.0077));
#1008=CARTESIAN_POINT('',(-0.0108,-0.0288809892222173,0.0077));
#1009=CARTESIAN_POINT('',(-0.0108,-0.0240747392222173,0.0077));
#1010=CARTESIAN_POINT('',(-0.0108,-0.0240747392222173,0.026));
#1011=CARTESIAN_POINT('',(-0.0093,-0.259742360357549,0.0062));
#1012=CARTESIAN_POINT('',(-0.0093,-0.0285868489779438,0.0062));
#1013=CARTESIAN_POINT('',(-0.0093,-0.0240747392222173,0.0062));
#1014=CARTESIAN_POINT('',(0.0093,-0.0189247392222174,0.0062));
#1015=CARTESIAN_POINT('',(0.0093,-0.0285868489779438,0.0062));
#1016=CARTESIAN_POINT('',(0.0093,-0.0240747392222173,0.0062));
#1017=CARTESIAN_POINT('',(0.,-0.0288747392222173,0.0076));
#1018=CARTESIAN_POINT('',(0.0093,-0.0288684892222173,0.0075));
#1019=CARTESIAN_POINT('',(0.0093,-0.0287864594936404,0.00618752434276896));
#1020=CARTESIAN_POINT('',(-0.0093,-0.0288747392222173,0.0076));
#1021=CARTESIAN_POINT('',(-0.0093,-0.0287864594936404,0.00618752434276896));
#1022=CARTESIAN_POINT('',(0.0093,-0.0287864594936404,0.00618752434276896));
#1023=CARTESIAN_POINT('',(-0.0093,-0.0293430961039345,0.0182999540158508));
#1024=CARTESIAN_POINT('',(-0.0093,-0.0285868489779438,0.0062));
#1025=CARTESIAN_POINT('',(-0.0093,-0.0285868489779438,0.0062));
#1026=CARTESIAN_POINT('',(-0.0093,-0.0285868489779438,0.0062));
#1027=CARTESIAN_POINT('',(0.,-0.0285868489779438,0.0062));
#1028=CARTESIAN_POINT('',(0.0093,-0.0285868489779438,0.0062));
#1029=CARTESIAN_POINT('',(0.0093,-0.0285868489779438,0.0062));
#1030=CARTESIAN_POINT('',(0.0093,-0.0285868489779438,0.0062));
#1031=CARTESIAN_POINT('',(0.0093,-0.0293430961039345,0.0182999540158508));
#1032=CARTESIAN_POINT('',(0.0093,-0.0240747392222173,0.0039));
#1033=CARTESIAN_POINT('',(0.0093,-0.0240747392222173,0.0062));
#1034=CARTESIAN_POINT('',(0.0093,-0.0240747392222173,0.0062));
#1035=CARTESIAN_POINT('',(0.0093,-0.0240747392222173,0.0062));
#1036=CARTESIAN_POINT('',(0.,-0.0240747392222173,0.0062));
#1037=CARTESIAN_POINT('',(-0.0093,-0.0240747392222173,0.0062));
#1038=CARTESIAN_POINT('',(-0.0093,-0.0240747392222173,0.0062));
#1039=CARTESIAN_POINT('',(-0.0093,-0.0240747392222173,0.0062));
#1040=CARTESIAN_POINT('',(-0.0093,-0.0240747392222173,0.026));
#1041=MECHANICAL_DESIGN_GEOMETRIC_PRESENTATION_REPRESENTATION('',(#584),
#1042);
#1042=(
GEOMETRIC_REPRESENTATION_CONTEXT(3)
GLOBAL_UNCERTAINTY_ASSIGNED_CONTEXT((#1043))
GLOBAL_UNIT_ASSIGNED_CONTEXT((#1046,#1045,#1044))
REPRESENTATION_CONTEXT('Part Light Guide','TOP_LEVEL_ASSEMBLY_PART')
);
#1043=UNCERTAINTY_MEASURE_WITH_UNIT(LENGTH_MEASURE(1.E-8),#1046,
'DISTANCE_ACCURACY_VALUE','Maximum Tolerance applied to model');
#1044=(
NAMED_UNIT(*)
SI_UNIT($,.STERADIAN.)
SOLID_ANGLE_UNIT()
);
#1045=(
NAMED_UNIT(*)
PLANE_ANGLE_UNIT()
SI_UNIT($,.RADIAN.)
);
#1046=(
LENGTH_UNIT()
NAMED_UNIT(*)
SI_UNIT($,.METRE.)
);
#1047=PRODUCT_DEFINITION_SHAPE('','',#1048);
#1048=PRODUCT_DEFINITION('','',#1050,#1049);
#1049=PRODUCT_DEFINITION_CONTEXT('',#1056,'design');
#1050=PRODUCT_DEFINITION_FORMATION_WITH_SPECIFIED_SOURCE('','',#1052,
 .NOT_KNOWN.);
#1051=PRODUCT_RELATED_PRODUCT_CATEGORY('','',(#1052));
#1052=PRODUCT('Part Light Guide','Part Light Guide','Part Light Guide',
(#1054));
#1053=PRODUCT_CATEGORY('','');
#1054=PRODUCT_CONTEXT('',#1056,'mechanical');
#1055=APPLICATION_PROTOCOL_DEFINITION('international standard',
'ap242_managed_model_based_3d_engineering',2020,#1056);
#1056=APPLICATION_CONTEXT('managed model based 3d engineering');
ENDSEC;
END-ISO-10303-21;
