ISO-10303-21;
HEADER;
/* Generated by software containing ST-Developer
 * from STEP Tools, Inc. (www.steptools.com) 
 */
/* OPTION: using custom renumber hook */

FILE_DESCRIPTION(
/* description */ (
  'STEP AP242 Edition 2',
  'License: MIT License, (c) 2025 Allan Juhl Kristensen',
  'CAx-IF Rec.Pracs.---Representation and Presentation of Product Manufacturing Information (PMI)---4.0---2014-10-13',
  'CAx-IF Rec.Pracs.---3D Tessellated Geometry---0.4---2014-09-14',
  'CAx-IF Rec.Pracs.---User Defined Attributes---1.5---2016-08-15'
),
/* implementation_level */ '2;1');

FILE_NAME(
/* name */ 'PCB_case_back_micro_usb',
/* time_stamp */ '2025-11-30T14:25:38Z',
/* author */ ('Allan Juhl Kristensen'),
/* organization */ (''),
/* preprocessor_version */ 'ST-DEVELOPER v20',
/* originating_system */ 'ONSHAPE BY PTC INC, 1.207',
/* authorisation */ 'Open-source release under MIT License');

FILE_SCHEMA (('AP242_MANAGED_MODEL_BASED_3D_ENGINEERING_MIM_LF { 1 0 10303 442 3 1 4 }'));
ENDSEC;

DATA;
#10=SHAPE_REPRESENTATION_RELATIONSHIP('','',#1001,#11);
#11=ADVANCED_BREP_SHAPE_REPRESENTATION('',(#999),#1751);
#12=SPHERICAL_SURFACE('',#1075,0.0002);
#13=SPHERICAL_SURFACE('',#1079,0.0002);
#14=SPHERICAL_SURFACE('',#1083,0.0002);
#15=SPHERICAL_SURFACE('',#1087,0.0002);
#16=SPHERICAL_SURFACE('',#1100,0.0002);
#17=SPHERICAL_SURFACE('',#1104,0.0002);
#18=SPHERICAL_SURFACE('',#1108,0.0002);
#19=SPHERICAL_SURFACE('',#1112,0.0002);
#20=TOROIDAL_SURFACE('',#1068,0.00145,0.0002);
#21=TOROIDAL_SURFACE('',#1072,0.00145,0.0002);
#22=TOROIDAL_SURFACE('',#1093,0.00145,0.0002);
#23=TOROIDAL_SURFACE('',#1095,0.00145,0.0002);
#24=B_SPLINE_CURVE_WITH_KNOTS('',3,(#1479,#1480,#1481,#1482),
 .UNSPECIFIED.,.F.,.F.,(4,4),(1.61181092737572E-17,6.07751764229661E-5),
 .UNSPECIFIED.);
#25=B_SPLINE_CURVE_WITH_KNOTS('',3,(#1494,#1495,#1496,#1497),
 .UNSPECIFIED.,.F.,.F.,(4,4),(0.,0.000444567904998963),.UNSPECIFIED.);
#26=B_SPLINE_CURVE_WITH_KNOTS('',3,(#1506,#1507,#1508,#1509),
 .UNSPECIFIED.,.F.,.F.,(4,4),(0.,0.000444341042935324),.UNSPECIFIED.);
#27=B_SPLINE_CURVE_WITH_KNOTS('',3,(#1528,#1529,#1530,#1531,#1532),
 .UNSPECIFIED.,.F.,.F.,(4,1,4),(1.12445147120862E-18,0.000242115577017859,
0.000484231154035718),.UNSPECIFIED.);
#28=B_SPLINE_CURVE_WITH_KNOTS('',3,(#1570,#1571,#1572,#1573,#1574),
 .UNSPECIFIED.,.F.,.F.,(4,1,4),(0.,0.00024338899950116,0.000486777999002321),
 .UNSPECIFIED.);
#29=B_SPLINE_CURVE_WITH_KNOTS('',3,(#1596,#1597,#1598,#1599),
 .UNSPECIFIED.,.F.,.F.,(4,4),(0.,0.000444567904998963),.UNSPECIFIED.);
#30=B_SPLINE_CURVE_WITH_KNOTS('',3,(#1611,#1612,#1613,#1614),
 .UNSPECIFIED.,.F.,.F.,(4,4),(0.,0.000444341042935324),.UNSPECIFIED.);
#31=B_SPLINE_CURVE_WITH_KNOTS('',3,(#1630,#1631,#1632,#1633),
 .UNSPECIFIED.,.F.,.F.,(4,4),(0.,0.000762742240350992),.UNSPECIFIED.);
#32=B_SPLINE_CURVE_WITH_KNOTS('',3,(#1639,#1640,#1641,#1642),
 .UNSPECIFIED.,.F.,.F.,(4,4),(0.,0.000762742240350991),.UNSPECIFIED.);
#33=B_SPLINE_CURVE_WITH_KNOTS('',3,(#1659,#1660,#1661,#1662),
 .UNSPECIFIED.,.F.,.F.,(4,4),(7.16514599458748E-22,6.07751764229918E-5),
 .UNSPECIFIED.);
#34=B_SPLINE_CURVE_WITH_KNOTS('',3,(#1725,#1726,#1727,#1728),
 .UNSPECIFIED.,.F.,.F.,(4,4),(2.0351765183177E-7,0.000306868857876594),
 .UNSPECIFIED.);
#35=B_SPLINE_CURVE_WITH_KNOTS('',3,(#1741,#1742,#1743,#1744),
 .UNSPECIFIED.,.F.,.F.,(4,4),(1.97195091035994E-7,0.000306806021169684),
 .UNSPECIFIED.);
#36=CYLINDRICAL_SURFACE('',#1012,0.000200000000000076);
#37=CYLINDRICAL_SURFACE('',#1016,0.0002);
#38=CYLINDRICAL_SURFACE('',#1019,0.0002);
#39=CYLINDRICAL_SURFACE('',#1025,0.0002);
#40=CYLINDRICAL_SURFACE('',#1029,0.0002);
#41=CYLINDRICAL_SURFACE('',#1033,0.0002);
#42=CYLINDRICAL_SURFACE('',#1037,0.0002);
#43=CYLINDRICAL_SURFACE('',#1043,0.0002);
#44=CYLINDRICAL_SURFACE('',#1046,0.0002);
#45=CYLINDRICAL_SURFACE('',#1051,0.00125);
#46=CYLINDRICAL_SURFACE('',#1055,0.00125);
#47=CYLINDRICAL_SURFACE('',#1058,0.000199999999999965);
#48=CYLINDRICAL_SURFACE('',#1070,0.0002);
#49=CYLINDRICAL_SURFACE('',#1073,0.0002);
#50=CYLINDRICAL_SURFACE('',#1077,0.0002);
#51=CYLINDRICAL_SURFACE('',#1081,0.0002);
#52=CYLINDRICAL_SURFACE('',#1085,0.0002);
#53=CYLINDRICAL_SURFACE('',#1089,0.0002);
#54=CYLINDRICAL_SURFACE('',#1090,0.0002);
#55=CYLINDRICAL_SURFACE('',#1097,0.0002);
#56=CYLINDRICAL_SURFACE('',#1098,0.0002);
#57=CYLINDRICAL_SURFACE('',#1102,0.0002);
#58=CYLINDRICAL_SURFACE('',#1106,0.0002);
#59=CYLINDRICAL_SURFACE('',#1110,0.0002);
#60=CYLINDRICAL_SURFACE('',#1114,0.0002);
#61=CYLINDRICAL_SURFACE('',#1115,0.0027);
#62=CIRCLE('',#1009,0.00145);
#63=CIRCLE('',#1010,0.00145);
#64=CIRCLE('',#1013,0.000200000000000076);
#65=CIRCLE('',#1017,0.0002);
#66=CIRCLE('',#1020,0.0002);
#67=CIRCLE('',#1026,0.0002);
#68=CIRCLE('',#1027,0.0002);
#69=CIRCLE('',#1030,0.0002);
#70=CIRCLE('',#1031,0.0002);
#71=CIRCLE('',#1034,0.0002);
#72=CIRCLE('',#1035,0.0002);
#73=CIRCLE('',#1038,0.0002);
#74=CIRCLE('',#1039,0.0002);
#75=CIRCLE('',#1044,0.0002);
#76=CIRCLE('',#1047,0.0002);
#77=CIRCLE('',#1052,0.00125);
#78=CIRCLE('',#1053,0.00125);
#79=CIRCLE('',#1056,0.00125);
#80=CIRCLE('',#1057,0.00125);
#81=CIRCLE('',#1059,0.000199999999999965);
#82=CIRCLE('',#1061,0.00145);
#83=CIRCLE('',#1062,0.00145);
#84=CIRCLE('',#1069,0.0002);
#85=CIRCLE('',#1071,0.0002);
#86=CIRCLE('',#1074,0.0002);
#87=CIRCLE('',#1076,0.0002);
#88=CIRCLE('',#1078,0.0002);
#89=CIRCLE('',#1080,0.0002);
#90=CIRCLE('',#1082,0.0002);
#91=CIRCLE('',#1084,0.0002);
#92=CIRCLE('',#1086,0.0002);
#93=CIRCLE('',#1088,0.0002);
#94=CIRCLE('',#1091,0.0002);
#95=CIRCLE('',#1092,0.0002);
#96=CIRCLE('',#1094,0.0002);
#97=CIRCLE('',#1096,0.0002);
#98=CIRCLE('',#1099,0.0002);
#99=CIRCLE('',#1101,0.0002);
#100=CIRCLE('',#1103,0.0002);
#101=CIRCLE('',#1105,0.0002);
#102=CIRCLE('',#1107,0.0002);
#103=CIRCLE('',#1109,0.0002);
#104=CIRCLE('',#1111,0.0002);
#105=CIRCLE('',#1113,0.0002);
#106=LINE('',#1427,#184);
#107=LINE('',#1429,#185);
#108=LINE('',#1431,#186);
#109=LINE('',#1433,#187);
#110=LINE('',#1438,#188);
#111=LINE('',#1442,#189);
#112=LINE('',#1447,#190);
#113=LINE('',#1451,#191);
#114=LINE('',#1453,#192);
#115=LINE('',#1455,#193);
#116=LINE('',#1457,#194);
#117=LINE('',#1459,#195);
#118=LINE('',#1461,#196);
#119=LINE('',#1463,#197);
#120=LINE('',#1465,#198);
#121=LINE('',#1467,#199);
#122=LINE('',#1470,#200);
#123=LINE('',#1472,#201);
#124=LINE('',#1474,#202);
#125=LINE('',#1476,#203);
#126=LINE('',#1487,#204);
#127=LINE('',#1489,#205);
#128=LINE('',#1491,#206);
#129=LINE('',#1500,#207);
#130=LINE('',#1502,#208);
#131=LINE('',#1504,#209);
#132=LINE('',#1517,#210);
#133=LINE('',#1519,#211);
#134=LINE('',#1521,#212);
#135=LINE('',#1523,#213);
#136=LINE('',#1535,#214);
#137=LINE('',#1537,#215);
#138=LINE('',#1539,#216);
#139=LINE('',#1541,#217);
#140=LINE('',#1545,#218);
#141=LINE('',#1549,#219);
#142=LINE('',#1551,#220);
#143=LINE('',#1553,#221);
#144=LINE('',#1557,#222);
#145=LINE('',#1561,#223);
#146=LINE('',#1563,#224);
#147=LINE('',#1565,#225);
#148=LINE('',#1567,#226);
#149=LINE('',#1579,#227);
#150=LINE('',#1581,#228);
#151=LINE('',#1583,#229);
#152=LINE('',#1587,#230);
#153=LINE('',#1589,#231);
#154=LINE('',#1591,#232);
#155=LINE('',#1593,#233);
#156=LINE('',#1602,#234);
#157=LINE('',#1604,#235);
#158=LINE('',#1606,#236);
#159=LINE('',#1608,#237);
#160=LINE('',#1619,#238);
#161=LINE('',#1621,#239);
#162=LINE('',#1623,#240);
#163=LINE('',#1626,#241);
#164=LINE('',#1628,#242);
#165=LINE('',#1634,#243);
#166=LINE('',#1636,#244);
#167=LINE('',#1638,#245);
#168=LINE('',#1646,#246);
#169=LINE('',#1650,#247);
#170=LINE('',#1652,#248);
#171=LINE('',#1654,#249);
#172=LINE('',#1665,#250);
#173=LINE('',#1666,#251);
#174=LINE('',#1668,#252);
#175=LINE('',#1670,#253);
#176=LINE('',#1672,#254);
#177=LINE('',#1674,#255);
#178=LINE('',#1678,#256);
#179=LINE('',#1682,#257);
#180=LINE('',#1685,#258);
#181=LINE('',#1688,#259);
#182=LINE('',#1721,#260);
#183=LINE('',#1748,#261);
#184=VECTOR('',#1122,1.);
#185=VECTOR('',#1123,1.);
#186=VECTOR('',#1124,1.);
#187=VECTOR('',#1125,1.);
#188=VECTOR('',#1130,1.);
#189=VECTOR('',#1135,1.);
#190=VECTOR('',#1138,1.);
#191=VECTOR('',#1141,1.);
#192=VECTOR('',#1142,1.);
#193=VECTOR('',#1143,1.);
#194=VECTOR('',#1144,1.);
#195=VECTOR('',#1145,1.);
#196=VECTOR('',#1146,1.);
#197=VECTOR('',#1147,1.);
#198=VECTOR('',#1148,1.);
#199=VECTOR('',#1151,1.);
#200=VECTOR('',#1152,1.);
#201=VECTOR('',#1153,1.);
#202=VECTOR('',#1154,1.);
#203=VECTOR('',#1157,1.);
#204=VECTOR('',#1164,1.);
#205=VECTOR('',#1165,1.);
#206=VECTOR('',#1168,1.);
#207=VECTOR('',#1173,1.);
#208=VECTOR('',#1174,1.);
#209=VECTOR('',#1175,1.);
#210=VECTOR('',#1186,1.);
#211=VECTOR('',#1189,1.);
#212=VECTOR('',#1190,1.);
#213=VECTOR('',#1191,1.);
#214=VECTOR('',#1198,1.);
#215=VECTOR('',#1201,1.);
#216=VECTOR('',#1202,1.);
#217=VECTOR('',#1203,1.);
#218=VECTOR('',#1208,1.);
#219=VECTOR('',#1213,1.);
#220=VECTOR('',#1214,1.);
#221=VECTOR('',#1215,1.);
#222=VECTOR('',#1220,1.);
#223=VECTOR('',#1225,1.);
#224=VECTOR('',#1226,1.);
#225=VECTOR('',#1227,1.);
#226=VECTOR('',#1230,1.);
#227=VECTOR('',#1237,1.);
#228=VECTOR('',#1238,1.);
#229=VECTOR('',#1239,1.);
#230=VECTOR('',#1244,1.);
#231=VECTOR('',#1245,1.);
#232=VECTOR('',#1246,1.);
#233=VECTOR('',#1249,1.);
#234=VECTOR('',#1254,1.);
#235=VECTOR('',#1255,1.);
#236=VECTOR('',#1256,1.);
#237=VECTOR('',#1259,1.);
#238=VECTOR('',#1266,1.);
#239=VECTOR('',#1267,1.);
#240=VECTOR('',#1270,1.);
#241=VECTOR('',#1271,1.);
#242=VECTOR('',#1272,1.);
#243=VECTOR('',#1273,1.);
#244=VECTOR('',#1274,1.);
#245=VECTOR('',#1275,1.);
#246=VECTOR('',#1280,1.);
#247=VECTOR('',#1285,1.);
#248=VECTOR('',#1286,1.);
#249=VECTOR('',#1287,1.);
#250=VECTOR('',#1300,1.);
#251=VECTOR('',#1301,1.);
#252=VECTOR('',#1302,1.);
#253=VECTOR('',#1303,1.);
#254=VECTOR('',#1304,1.);
#255=VECTOR('',#1305,1.);
#256=VECTOR('',#1308,1.);
#257=VECTOR('',#1311,1.);
#258=VECTOR('',#1316,1.);
#259=VECTOR('',#1321,1.);
#260=VECTOR('',#1386,1.);
#261=VECTOR('',#1419,1.);
#262=ORIENTED_EDGE('',*,*,#550,.F.);
#263=ORIENTED_EDGE('',*,*,#551,.T.);
#264=ORIENTED_EDGE('',*,*,#552,.F.);
#265=ORIENTED_EDGE('',*,*,#553,.T.);
#266=ORIENTED_EDGE('',*,*,#554,.F.);
#267=ORIENTED_EDGE('',*,*,#555,.F.);
#268=ORIENTED_EDGE('',*,*,#556,.T.);
#269=ORIENTED_EDGE('',*,*,#557,.T.);
#270=ORIENTED_EDGE('',*,*,#558,.F.);
#271=ORIENTED_EDGE('',*,*,#559,.T.);
#272=ORIENTED_EDGE('',*,*,#560,.T.);
#273=ORIENTED_EDGE('',*,*,#561,.T.);
#274=ORIENTED_EDGE('',*,*,#562,.F.);
#275=ORIENTED_EDGE('',*,*,#563,.F.);
#276=ORIENTED_EDGE('',*,*,#564,.T.);
#277=ORIENTED_EDGE('',*,*,#565,.T.);
#278=ORIENTED_EDGE('',*,*,#566,.T.);
#279=ORIENTED_EDGE('',*,*,#567,.T.);
#280=ORIENTED_EDGE('',*,*,#568,.T.);
#281=ORIENTED_EDGE('',*,*,#569,.F.);
#282=ORIENTED_EDGE('',*,*,#570,.F.);
#283=ORIENTED_EDGE('',*,*,#571,.T.);
#284=ORIENTED_EDGE('',*,*,#572,.F.);
#285=ORIENTED_EDGE('',*,*,#573,.F.);
#286=ORIENTED_EDGE('',*,*,#574,.F.);
#287=ORIENTED_EDGE('',*,*,#575,.T.);
#288=ORIENTED_EDGE('',*,*,#573,.T.);
#289=ORIENTED_EDGE('',*,*,#576,.T.);
#290=ORIENTED_EDGE('',*,*,#577,.F.);
#291=ORIENTED_EDGE('',*,*,#574,.T.);
#292=ORIENTED_EDGE('',*,*,#578,.F.);
#293=ORIENTED_EDGE('',*,*,#579,.F.);
#294=ORIENTED_EDGE('',*,*,#580,.F.);
#295=ORIENTED_EDGE('',*,*,#581,.T.);
#296=ORIENTED_EDGE('',*,*,#579,.T.);
#297=ORIENTED_EDGE('',*,*,#582,.T.);
#298=ORIENTED_EDGE('',*,*,#583,.F.);
#299=ORIENTED_EDGE('',*,*,#580,.T.);
#300=ORIENTED_EDGE('',*,*,#584,.F.);
#301=ORIENTED_EDGE('',*,*,#585,.F.);
#302=ORIENTED_EDGE('',*,*,#551,.F.);
#303=ORIENTED_EDGE('',*,*,#586,.T.);
#304=ORIENTED_EDGE('',*,*,#585,.T.);
#305=ORIENTED_EDGE('',*,*,#587,.T.);
#306=ORIENTED_EDGE('',*,*,#588,.F.);
#307=ORIENTED_EDGE('',*,*,#589,.T.);
#308=ORIENTED_EDGE('',*,*,#590,.T.);
#309=ORIENTED_EDGE('',*,*,#591,.F.);
#310=ORIENTED_EDGE('',*,*,#554,.T.);
#311=ORIENTED_EDGE('',*,*,#592,.T.);
#312=ORIENTED_EDGE('',*,*,#593,.F.);
#313=ORIENTED_EDGE('',*,*,#594,.T.);
#314=ORIENTED_EDGE('',*,*,#595,.T.);
#315=ORIENTED_EDGE('',*,*,#593,.T.);
#316=ORIENTED_EDGE('',*,*,#596,.T.);
#317=ORIENTED_EDGE('',*,*,#597,.F.);
#318=ORIENTED_EDGE('',*,*,#597,.T.);
#319=ORIENTED_EDGE('',*,*,#598,.T.);
#320=ORIENTED_EDGE('',*,*,#599,.F.);
#321=ORIENTED_EDGE('',*,*,#600,.T.);
#322=ORIENTED_EDGE('',*,*,#599,.T.);
#323=ORIENTED_EDGE('',*,*,#601,.T.);
#324=ORIENTED_EDGE('',*,*,#602,.F.);
#325=ORIENTED_EDGE('',*,*,#603,.T.);
#326=ORIENTED_EDGE('',*,*,#602,.T.);
#327=ORIENTED_EDGE('',*,*,#604,.T.);
#328=ORIENTED_EDGE('',*,*,#605,.F.);
#329=ORIENTED_EDGE('',*,*,#606,.T.);
#330=ORIENTED_EDGE('',*,*,#605,.T.);
#331=ORIENTED_EDGE('',*,*,#607,.T.);
#332=ORIENTED_EDGE('',*,*,#608,.F.);
#333=ORIENTED_EDGE('',*,*,#609,.T.);
#334=ORIENTED_EDGE('',*,*,#608,.T.);
#335=ORIENTED_EDGE('',*,*,#610,.T.);
#336=ORIENTED_EDGE('',*,*,#611,.F.);
#337=ORIENTED_EDGE('',*,*,#612,.T.);
#338=ORIENTED_EDGE('',*,*,#613,.F.);
#339=ORIENTED_EDGE('',*,*,#614,.T.);
#340=ORIENTED_EDGE('',*,*,#615,.T.);
#341=ORIENTED_EDGE('',*,*,#611,.T.);
#342=ORIENTED_EDGE('',*,*,#616,.T.);
#343=ORIENTED_EDGE('',*,*,#617,.F.);
#344=ORIENTED_EDGE('',*,*,#613,.T.);
#345=ORIENTED_EDGE('',*,*,#618,.T.);
#346=ORIENTED_EDGE('',*,*,#619,.F.);
#347=ORIENTED_EDGE('',*,*,#620,.F.);
#348=ORIENTED_EDGE('',*,*,#619,.T.);
#349=ORIENTED_EDGE('',*,*,#621,.F.);
#350=ORIENTED_EDGE('',*,*,#622,.F.);
#351=ORIENTED_EDGE('',*,*,#623,.F.);
#352=ORIENTED_EDGE('',*,*,#624,.F.);
#353=ORIENTED_EDGE('',*,*,#625,.T.);
#354=ORIENTED_EDGE('',*,*,#623,.T.);
#355=ORIENTED_EDGE('',*,*,#626,.T.);
#356=ORIENTED_EDGE('',*,*,#627,.F.);
#357=ORIENTED_EDGE('',*,*,#624,.T.);
#358=ORIENTED_EDGE('',*,*,#628,.F.);
#359=ORIENTED_EDGE('',*,*,#629,.F.);
#360=ORIENTED_EDGE('',*,*,#630,.F.);
#361=ORIENTED_EDGE('',*,*,#631,.T.);
#362=ORIENTED_EDGE('',*,*,#629,.T.);
#363=ORIENTED_EDGE('',*,*,#632,.T.);
#364=ORIENTED_EDGE('',*,*,#633,.F.);
#365=ORIENTED_EDGE('',*,*,#630,.T.);
#366=ORIENTED_EDGE('',*,*,#634,.F.);
#367=ORIENTED_EDGE('',*,*,#635,.F.);
#368=ORIENTED_EDGE('',*,*,#636,.F.);
#369=ORIENTED_EDGE('',*,*,#637,.T.);
#370=ORIENTED_EDGE('',*,*,#638,.T.);
#371=ORIENTED_EDGE('',*,*,#639,.T.);
#372=ORIENTED_EDGE('',*,*,#558,.T.);
#373=ORIENTED_EDGE('',*,*,#640,.F.);
#374=ORIENTED_EDGE('',*,*,#641,.F.);
#375=ORIENTED_EDGE('',*,*,#642,.T.);
#376=ORIENTED_EDGE('',*,*,#562,.T.);
#377=ORIENTED_EDGE('',*,*,#643,.T.);
#378=ORIENTED_EDGE('',*,*,#636,.T.);
#379=ORIENTED_EDGE('',*,*,#644,.T.);
#380=ORIENTED_EDGE('',*,*,#645,.F.);
#381=ORIENTED_EDGE('',*,*,#646,.T.);
#382=ORIENTED_EDGE('',*,*,#645,.T.);
#383=ORIENTED_EDGE('',*,*,#647,.T.);
#384=ORIENTED_EDGE('',*,*,#648,.F.);
#385=ORIENTED_EDGE('',*,*,#649,.T.);
#386=ORIENTED_EDGE('',*,*,#648,.T.);
#387=ORIENTED_EDGE('',*,*,#650,.T.);
#388=ORIENTED_EDGE('',*,*,#638,.F.);
#389=ORIENTED_EDGE('',*,*,#651,.T.);
#390=ORIENTED_EDGE('',*,*,#571,.F.);
#391=ORIENTED_EDGE('',*,*,#652,.T.);
#392=ORIENTED_EDGE('',*,*,#635,.T.);
#393=ORIENTED_EDGE('',*,*,#653,.T.);
#394=ORIENTED_EDGE('',*,*,#654,.F.);
#395=ORIENTED_EDGE('',*,*,#590,.F.);
#396=ORIENTED_EDGE('',*,*,#655,.T.);
#397=ORIENTED_EDGE('',*,*,#656,.T.);
#398=ORIENTED_EDGE('',*,*,#657,.T.);
#399=ORIENTED_EDGE('',*,*,#658,.T.);
#400=ORIENTED_EDGE('',*,*,#659,.T.);
#401=ORIENTED_EDGE('',*,*,#556,.F.);
#402=ORIENTED_EDGE('',*,*,#660,.T.);
#403=ORIENTED_EDGE('',*,*,#661,.T.);
#404=ORIENTED_EDGE('',*,*,#662,.T.);
#405=ORIENTED_EDGE('',*,*,#663,.T.);
#406=ORIENTED_EDGE('',*,*,#569,.T.);
#407=ORIENTED_EDGE('',*,*,#664,.T.);
#408=ORIENTED_EDGE('',*,*,#553,.F.);
#409=ORIENTED_EDGE('',*,*,#665,.F.);
#410=ORIENTED_EDGE('',*,*,#640,.T.);
#411=ORIENTED_EDGE('',*,*,#621,.T.);
#412=ORIENTED_EDGE('',*,*,#666,.T.);
#413=ORIENTED_EDGE('',*,*,#563,.T.);
#414=ORIENTED_EDGE('',*,*,#642,.F.);
#415=ORIENTED_EDGE('',*,*,#667,.F.);
#416=ORIENTED_EDGE('',*,*,#572,.T.);
#417=ORIENTED_EDGE('',*,*,#653,.F.);
#418=ORIENTED_EDGE('',*,*,#634,.T.);
#419=ORIENTED_EDGE('',*,*,#632,.F.);
#420=ORIENTED_EDGE('',*,*,#628,.T.);
#421=ORIENTED_EDGE('',*,*,#626,.F.);
#422=ORIENTED_EDGE('',*,*,#622,.T.);
#423=ORIENTED_EDGE('',*,*,#667,.T.);
#424=ORIENTED_EDGE('',*,*,#641,.T.);
#425=ORIENTED_EDGE('',*,*,#665,.T.);
#426=ORIENTED_EDGE('',*,*,#552,.T.);
#427=ORIENTED_EDGE('',*,*,#587,.F.);
#428=ORIENTED_EDGE('',*,*,#584,.T.);
#429=ORIENTED_EDGE('',*,*,#582,.F.);
#430=ORIENTED_EDGE('',*,*,#578,.T.);
#431=ORIENTED_EDGE('',*,*,#576,.F.);
#432=ORIENTED_EDGE('',*,*,#643,.F.);
#433=ORIENTED_EDGE('',*,*,#561,.F.);
#434=ORIENTED_EDGE('',*,*,#668,.F.);
#435=ORIENTED_EDGE('',*,*,#644,.F.);
#436=ORIENTED_EDGE('',*,*,#668,.T.);
#437=ORIENTED_EDGE('',*,*,#560,.F.);
#438=ORIENTED_EDGE('',*,*,#669,.F.);
#439=ORIENTED_EDGE('',*,*,#647,.F.);
#440=ORIENTED_EDGE('',*,*,#669,.T.);
#441=ORIENTED_EDGE('',*,*,#559,.F.);
#442=ORIENTED_EDGE('',*,*,#639,.F.);
#443=ORIENTED_EDGE('',*,*,#650,.F.);
#444=ORIENTED_EDGE('',*,*,#670,.F.);
#445=ORIENTED_EDGE('',*,*,#592,.F.);
#446=ORIENTED_EDGE('',*,*,#664,.F.);
#447=ORIENTED_EDGE('',*,*,#568,.F.);
#448=ORIENTED_EDGE('',*,*,#596,.F.);
#449=ORIENTED_EDGE('',*,*,#670,.T.);
#450=ORIENTED_EDGE('',*,*,#671,.F.);
#451=ORIENTED_EDGE('',*,*,#672,.F.);
#452=ORIENTED_EDGE('',*,*,#598,.F.);
#453=ORIENTED_EDGE('',*,*,#671,.T.);
#454=ORIENTED_EDGE('',*,*,#567,.F.);
#455=ORIENTED_EDGE('',*,*,#601,.F.);
#456=ORIENTED_EDGE('',*,*,#672,.T.);
#457=ORIENTED_EDGE('',*,*,#673,.F.);
#458=ORIENTED_EDGE('',*,*,#674,.F.);
#459=ORIENTED_EDGE('',*,*,#604,.F.);
#460=ORIENTED_EDGE('',*,*,#673,.T.);
#461=ORIENTED_EDGE('',*,*,#566,.F.);
#462=ORIENTED_EDGE('',*,*,#607,.F.);
#463=ORIENTED_EDGE('',*,*,#674,.T.);
#464=ORIENTED_EDGE('',*,*,#675,.F.);
#465=ORIENTED_EDGE('',*,*,#676,.F.);
#466=ORIENTED_EDGE('',*,*,#610,.F.);
#467=ORIENTED_EDGE('',*,*,#675,.T.);
#468=ORIENTED_EDGE('',*,*,#565,.F.);
#469=ORIENTED_EDGE('',*,*,#616,.F.);
#470=ORIENTED_EDGE('',*,*,#676,.T.);
#471=ORIENTED_EDGE('',*,*,#677,.F.);
#472=ORIENTED_EDGE('',*,*,#666,.F.);
#473=ORIENTED_EDGE('',*,*,#618,.F.);
#474=ORIENTED_EDGE('',*,*,#677,.T.);
#475=ORIENTED_EDGE('',*,*,#564,.F.);
#476=ORIENTED_EDGE('',*,*,#678,.F.);
#477=ORIENTED_EDGE('',*,*,#637,.F.);
#478=ORIENTED_EDGE('',*,*,#679,.F.);
#479=ORIENTED_EDGE('',*,*,#663,.F.);
#480=ORIENTED_EDGE('',*,*,#679,.T.);
#481=ORIENTED_EDGE('',*,*,#646,.F.);
#482=ORIENTED_EDGE('',*,*,#680,.F.);
#483=ORIENTED_EDGE('',*,*,#660,.F.);
#484=ORIENTED_EDGE('',*,*,#678,.T.);
#485=ORIENTED_EDGE('',*,*,#662,.F.);
#486=ORIENTED_EDGE('',*,*,#681,.F.);
#487=ORIENTED_EDGE('',*,*,#651,.F.);
#488=ORIENTED_EDGE('',*,*,#680,.T.);
#489=ORIENTED_EDGE('',*,*,#649,.F.);
#490=ORIENTED_EDGE('',*,*,#681,.T.);
#491=ORIENTED_EDGE('',*,*,#661,.F.);
#492=ORIENTED_EDGE('',*,*,#682,.F.);
#493=ORIENTED_EDGE('',*,*,#683,.F.);
#494=ORIENTED_EDGE('',*,*,#655,.F.);
#495=ORIENTED_EDGE('',*,*,#589,.F.);
#496=ORIENTED_EDGE('',*,*,#684,.F.);
#497=ORIENTED_EDGE('',*,*,#594,.F.);
#498=ORIENTED_EDGE('',*,*,#685,.F.);
#499=ORIENTED_EDGE('',*,*,#683,.T.);
#500=ORIENTED_EDGE('',*,*,#685,.T.);
#501=ORIENTED_EDGE('',*,*,#600,.F.);
#502=ORIENTED_EDGE('',*,*,#686,.F.);
#503=ORIENTED_EDGE('',*,*,#656,.F.);
#504=ORIENTED_EDGE('',*,*,#686,.T.);
#505=ORIENTED_EDGE('',*,*,#603,.F.);
#506=ORIENTED_EDGE('',*,*,#687,.F.);
#507=ORIENTED_EDGE('',*,*,#687,.T.);
#508=ORIENTED_EDGE('',*,*,#606,.F.);
#509=ORIENTED_EDGE('',*,*,#688,.F.);
#510=ORIENTED_EDGE('',*,*,#657,.F.);
#511=ORIENTED_EDGE('',*,*,#688,.T.);
#512=ORIENTED_EDGE('',*,*,#609,.F.);
#513=ORIENTED_EDGE('',*,*,#689,.F.);
#514=ORIENTED_EDGE('',*,*,#689,.T.);
#515=ORIENTED_EDGE('',*,*,#612,.F.);
#516=ORIENTED_EDGE('',*,*,#690,.F.);
#517=ORIENTED_EDGE('',*,*,#658,.F.);
#518=ORIENTED_EDGE('',*,*,#691,.F.);
#519=ORIENTED_EDGE('',*,*,#692,.F.);
#520=ORIENTED_EDGE('',*,*,#690,.T.);
#521=ORIENTED_EDGE('',*,*,#615,.F.);
#522=ORIENTED_EDGE('',*,*,#693,.F.);
#523=ORIENTED_EDGE('',*,*,#557,.F.);
#524=ORIENTED_EDGE('',*,*,#659,.F.);
#525=ORIENTED_EDGE('',*,*,#692,.T.);
#526=ORIENTED_EDGE('',*,*,#627,.T.);
#527=ORIENTED_EDGE('',*,*,#631,.F.);
#528=ORIENTED_EDGE('',*,*,#633,.T.);
#529=ORIENTED_EDGE('',*,*,#652,.F.);
#530=ORIENTED_EDGE('',*,*,#570,.T.);
#531=ORIENTED_EDGE('',*,*,#575,.F.);
#532=ORIENTED_EDGE('',*,*,#577,.T.);
#533=ORIENTED_EDGE('',*,*,#581,.F.);
#534=ORIENTED_EDGE('',*,*,#583,.T.);
#535=ORIENTED_EDGE('',*,*,#586,.F.);
#536=ORIENTED_EDGE('',*,*,#550,.T.);
#537=ORIENTED_EDGE('',*,*,#591,.T.);
#538=ORIENTED_EDGE('',*,*,#595,.F.);
#539=ORIENTED_EDGE('',*,*,#684,.T.);
#540=ORIENTED_EDGE('',*,*,#682,.T.);
#541=ORIENTED_EDGE('',*,*,#588,.T.);
#542=ORIENTED_EDGE('',*,*,#654,.T.);
#543=ORIENTED_EDGE('',*,*,#555,.T.);
#544=ORIENTED_EDGE('',*,*,#693,.T.);
#545=ORIENTED_EDGE('',*,*,#691,.T.);
#546=ORIENTED_EDGE('',*,*,#614,.F.);
#547=ORIENTED_EDGE('',*,*,#617,.T.);
#548=ORIENTED_EDGE('',*,*,#620,.T.);
#549=ORIENTED_EDGE('',*,*,#625,.F.);
#550=EDGE_CURVE('',#694,#695,#780,.T.);
#551=EDGE_CURVE('',#694,#696,#106,.T.);
#552=EDGE_CURVE('',#697,#696,#107,.T.);
#553=EDGE_CURVE('',#697,#698,#108,.T.);
#554=EDGE_CURVE('',#695,#698,#109,.T.);
#555=EDGE_CURVE('',#699,#700,#781,.T.);
#556=EDGE_CURVE('',#699,#701,#110,.T.);
#557=EDGE_CURVE('',#701,#700,#782,.F.);
#558=EDGE_CURVE('',#702,#703,#111,.T.);
#559=EDGE_CURVE('',#702,#704,#62,.T.);
#560=EDGE_CURVE('',#704,#705,#112,.F.);
#561=EDGE_CURVE('',#705,#706,#63,.T.);
#562=EDGE_CURVE('',#707,#706,#113,.T.);
#563=EDGE_CURVE('',#708,#707,#114,.T.);
#564=EDGE_CURVE('',#708,#709,#115,.T.);
#565=EDGE_CURVE('',#709,#710,#116,.T.);
#566=EDGE_CURVE('',#710,#711,#117,.T.);
#567=EDGE_CURVE('',#711,#712,#118,.T.);
#568=EDGE_CURVE('',#712,#713,#119,.T.);
#569=EDGE_CURVE('',#703,#713,#120,.T.);
#570=EDGE_CURVE('',#714,#715,#121,.F.);
#571=EDGE_CURVE('',#714,#716,#122,.T.);
#572=EDGE_CURVE('',#717,#716,#123,.T.);
#573=EDGE_CURVE('',#715,#717,#124,.T.);
#574=EDGE_CURVE('',#718,#719,#125,.T.);
#575=EDGE_CURVE('',#718,#715,#24,.T.);
#576=EDGE_CURVE('',#717,#719,#64,.T.);
#577=EDGE_CURVE('',#718,#720,#783,.T.);
#578=EDGE_CURVE('',#721,#719,#126,.T.);
#579=EDGE_CURVE('',#720,#721,#127,.T.);
#580=EDGE_CURVE('',#722,#723,#128,.T.);
#581=EDGE_CURVE('',#722,#720,#25,.T.);
#582=EDGE_CURVE('',#721,#723,#65,.T.);
#583=EDGE_CURVE('',#722,#724,#129,.F.);
#584=EDGE_CURVE('',#725,#723,#130,.T.);
#585=EDGE_CURVE('',#724,#725,#131,.T.);
#586=EDGE_CURVE('',#694,#724,#26,.T.);
#587=EDGE_CURVE('',#725,#696,#66,.T.);
#588=EDGE_CURVE('',#726,#727,#784,.T.);
#589=EDGE_CURVE('',#726,#728,#785,.F.);
#590=EDGE_CURVE('',#728,#727,#132,.T.);
#591=EDGE_CURVE('',#695,#729,#133,.F.);
#592=EDGE_CURVE('',#698,#730,#134,.F.);
#593=EDGE_CURVE('',#729,#730,#135,.T.);
#594=EDGE_CURVE('',#731,#732,#67,.T.);
#595=EDGE_CURVE('',#732,#729,#27,.T.);
#596=EDGE_CURVE('',#730,#733,#68,.F.);
#597=EDGE_CURVE('',#731,#733,#136,.T.);
#598=EDGE_CURVE('',#733,#734,#137,.F.);
#599=EDGE_CURVE('',#735,#734,#138,.T.);
#600=EDGE_CURVE('',#735,#731,#139,.T.);
#601=EDGE_CURVE('',#734,#736,#69,.F.);
#602=EDGE_CURVE('',#737,#736,#140,.T.);
#603=EDGE_CURVE('',#737,#735,#70,.T.);
#604=EDGE_CURVE('',#736,#738,#141,.F.);
#605=EDGE_CURVE('',#739,#738,#142,.T.);
#606=EDGE_CURVE('',#739,#737,#143,.T.);
#607=EDGE_CURVE('',#738,#740,#71,.F.);
#608=EDGE_CURVE('',#741,#740,#144,.T.);
#609=EDGE_CURVE('',#741,#739,#72,.T.);
#610=EDGE_CURVE('',#740,#742,#145,.F.);
#611=EDGE_CURVE('',#743,#742,#146,.T.);
#612=EDGE_CURVE('',#743,#741,#147,.T.);
#613=EDGE_CURVE('',#744,#745,#148,.T.);
#614=EDGE_CURVE('',#744,#746,#28,.T.);
#615=EDGE_CURVE('',#746,#743,#73,.T.);
#616=EDGE_CURVE('',#742,#745,#74,.F.);
#617=EDGE_CURVE('',#744,#747,#149,.F.);
#618=EDGE_CURVE('',#745,#748,#150,.F.);
#619=EDGE_CURVE('',#747,#748,#151,.T.);
#620=EDGE_CURVE('',#747,#749,#786,.T.);
#621=EDGE_CURVE('',#750,#748,#152,.T.);
#622=EDGE_CURVE('',#751,#750,#153,.T.);
#623=EDGE_CURVE('',#749,#751,#154,.T.);
#624=EDGE_CURVE('',#752,#753,#155,.T.);
#625=EDGE_CURVE('',#752,#749,#29,.T.);
#626=EDGE_CURVE('',#751,#753,#75,.T.);
#627=EDGE_CURVE('',#752,#754,#156,.F.);
#628=EDGE_CURVE('',#755,#753,#157,.T.);
#629=EDGE_CURVE('',#754,#755,#158,.T.);
#630=EDGE_CURVE('',#756,#757,#159,.T.);
#631=EDGE_CURVE('',#756,#754,#30,.T.);
#632=EDGE_CURVE('',#755,#757,#76,.T.);
#633=EDGE_CURVE('',#756,#758,#787,.T.);
#634=EDGE_CURVE('',#759,#757,#160,.T.);
#635=EDGE_CURVE('',#758,#759,#161,.T.);
#636=EDGE_CURVE('',#760,#761,#162,.T.);
#637=EDGE_CURVE('',#760,#762,#163,.T.);
#638=EDGE_CURVE('',#762,#763,#164,.T.);
#639=EDGE_CURVE('',#763,#702,#31,.F.);
#640=EDGE_CURVE('',#764,#703,#165,.T.);
#641=EDGE_CURVE('',#765,#764,#166,.T.);
#642=EDGE_CURVE('',#765,#707,#167,.T.);
#643=EDGE_CURVE('',#706,#761,#32,.T.);
#644=EDGE_CURVE('',#761,#766,#77,.F.);
#645=EDGE_CURVE('',#767,#766,#168,.T.);
#646=EDGE_CURVE('',#767,#760,#78,.T.);
#647=EDGE_CURVE('',#766,#768,#169,.T.);
#648=EDGE_CURVE('',#769,#768,#170,.T.);
#649=EDGE_CURVE('',#769,#767,#171,.F.);
#650=EDGE_CURVE('',#768,#763,#79,.F.);
#651=EDGE_CURVE('',#762,#769,#80,.T.);
#652=EDGE_CURVE('',#714,#758,#33,.T.);
#653=EDGE_CURVE('',#759,#716,#81,.T.);
#654=EDGE_CURVE('',#727,#699,#172,.T.);
#655=EDGE_CURVE('',#728,#770,#173,.F.);
#656=EDGE_CURVE('',#770,#771,#174,.F.);
#657=EDGE_CURVE('',#771,#772,#175,.F.);
#658=EDGE_CURVE('',#772,#773,#176,.F.);
#659=EDGE_CURVE('',#773,#701,#177,.F.);
#660=EDGE_CURVE('',#774,#775,#82,.F.);
#661=EDGE_CURVE('',#775,#776,#178,.T.);
#662=EDGE_CURVE('',#776,#777,#83,.F.);
#663=EDGE_CURVE('',#777,#774,#179,.F.);
#664=EDGE_CURVE('',#713,#698,#788,.T.);
#665=EDGE_CURVE('',#764,#697,#180,.T.);
#666=EDGE_CURVE('',#748,#708,#789,.T.);
#667=EDGE_CURVE('',#750,#765,#181,.T.);
#668=EDGE_CURVE('',#766,#705,#84,.T.);
#669=EDGE_CURVE('',#768,#704,#85,.T.);
#670=EDGE_CURVE('',#730,#712,#86,.T.);
#671=EDGE_CURVE('',#733,#712,#87,.T.);
#672=EDGE_CURVE('',#734,#711,#88,.T.);
#673=EDGE_CURVE('',#736,#711,#89,.T.);
#674=EDGE_CURVE('',#738,#710,#90,.T.);
#675=EDGE_CURVE('',#740,#710,#91,.T.);
#676=EDGE_CURVE('',#742,#709,#92,.T.);
#677=EDGE_CURVE('',#745,#709,#93,.T.);
#678=EDGE_CURVE('',#762,#777,#94,.T.);
#679=EDGE_CURVE('',#774,#760,#95,.T.);
#680=EDGE_CURVE('',#775,#767,#96,.T.);
#681=EDGE_CURVE('',#769,#776,#97,.T.);
#682=EDGE_CURVE('',#778,#726,#182,.T.);
#683=EDGE_CURVE('',#770,#778,#98,.T.);
#684=EDGE_CURVE('',#732,#778,#34,.T.);
#685=EDGE_CURVE('',#770,#731,#99,.T.);
#686=EDGE_CURVE('',#771,#735,#100,.T.);
#687=EDGE_CURVE('',#771,#737,#101,.T.);
#688=EDGE_CURVE('',#772,#739,#102,.T.);
#689=EDGE_CURVE('',#772,#741,#103,.T.);
#690=EDGE_CURVE('',#773,#743,#104,.T.);
#691=EDGE_CURVE('',#779,#746,#35,.T.);
#692=EDGE_CURVE('',#773,#779,#105,.T.);
#693=EDGE_CURVE('',#700,#779,#183,.T.);
#694=VERTEX_POINT('',#1425);
#695=VERTEX_POINT('',#1426);
#696=VERTEX_POINT('',#1428);
#697=VERTEX_POINT('',#1430);
#698=VERTEX_POINT('',#1432);
#699=VERTEX_POINT('',#1436);
#700=VERTEX_POINT('',#1437);
#701=VERTEX_POINT('',#1439);
#702=VERTEX_POINT('',#1443);
#703=VERTEX_POINT('',#1444);
#704=VERTEX_POINT('',#1446);
#705=VERTEX_POINT('',#1448);
#706=VERTEX_POINT('',#1450);
#707=VERTEX_POINT('',#1452);
#708=VERTEX_POINT('',#1454);
#709=VERTEX_POINT('',#1456);
#710=VERTEX_POINT('',#1458);
#711=VERTEX_POINT('',#1460);
#712=VERTEX_POINT('',#1462);
#713=VERTEX_POINT('',#1464);
#714=VERTEX_POINT('',#1468);
#715=VERTEX_POINT('',#1469);
#716=VERTEX_POINT('',#1471);
#717=VERTEX_POINT('',#1473);
#718=VERTEX_POINT('',#1477);
#719=VERTEX_POINT('',#1478);
#720=VERTEX_POINT('',#1486);
#721=VERTEX_POINT('',#1488);
#722=VERTEX_POINT('',#1492);
#723=VERTEX_POINT('',#1493);
#724=VERTEX_POINT('',#1501);
#725=VERTEX_POINT('',#1503);
#726=VERTEX_POINT('',#1513);
#727=VERTEX_POINT('',#1514);
#728=VERTEX_POINT('',#1516);
#729=VERTEX_POINT('',#1520);
#730=VERTEX_POINT('',#1522);
#731=VERTEX_POINT('',#1526);
#732=VERTEX_POINT('',#1527);
#733=VERTEX_POINT('',#1534);
#734=VERTEX_POINT('',#1538);
#735=VERTEX_POINT('',#1540);
#736=VERTEX_POINT('',#1544);
#737=VERTEX_POINT('',#1546);
#738=VERTEX_POINT('',#1550);
#739=VERTEX_POINT('',#1552);
#740=VERTEX_POINT('',#1556);
#741=VERTEX_POINT('',#1558);
#742=VERTEX_POINT('',#1562);
#743=VERTEX_POINT('',#1564);
#744=VERTEX_POINT('',#1568);
#745=VERTEX_POINT('',#1569);
#746=VERTEX_POINT('',#1575);
#747=VERTEX_POINT('',#1580);
#748=VERTEX_POINT('',#1582);
#749=VERTEX_POINT('',#1586);
#750=VERTEX_POINT('',#1588);
#751=VERTEX_POINT('',#1590);
#752=VERTEX_POINT('',#1594);
#753=VERTEX_POINT('',#1595);
#754=VERTEX_POINT('',#1603);
#755=VERTEX_POINT('',#1605);
#756=VERTEX_POINT('',#1609);
#757=VERTEX_POINT('',#1610);
#758=VERTEX_POINT('',#1618);
#759=VERTEX_POINT('',#1620);
#760=VERTEX_POINT('',#1624);
#761=VERTEX_POINT('',#1625);
#762=VERTEX_POINT('',#1627);
#763=VERTEX_POINT('',#1629);
#764=VERTEX_POINT('',#1635);
#765=VERTEX_POINT('',#1637);
#766=VERTEX_POINT('',#1645);
#767=VERTEX_POINT('',#1647);
#768=VERTEX_POINT('',#1651);
#769=VERTEX_POINT('',#1653);
#770=VERTEX_POINT('',#1667);
#771=VERTEX_POINT('',#1669);
#772=VERTEX_POINT('',#1671);
#773=VERTEX_POINT('',#1673);
#774=VERTEX_POINT('',#1676);
#775=VERTEX_POINT('',#1677);
#776=VERTEX_POINT('',#1679);
#777=VERTEX_POINT('',#1681);
#778=VERTEX_POINT('',#1722);
#779=VERTEX_POINT('',#1745);
#780=ELLIPSE('',#1004,0.00311769145362398,0.0027);
#781=ELLIPSE('',#1006,0.00311769145362398,0.0027);
#782=ELLIPSE('',#1007,0.00023094010767585,0.0002);
#783=ELLIPSE('',#1015,0.00311769145362398,0.0027);
#784=ELLIPSE('',#1022,0.00311769145362398,0.0027);
#785=ELLIPSE('',#1023,0.00023094010767585,0.0002);
#786=ELLIPSE('',#1042,0.00311769145362398,0.0027);
#787=ELLIPSE('',#1049,0.00311769145362398,0.0027);
#788=ELLIPSE('',#1064,0.000317659774230566,0.0002);
#789=ELLIPSE('',#1066,0.000317659774230567,0.0002);
#790=EDGE_LOOP('',(#262,#263,#264,#265,#266));
#791=EDGE_LOOP('',(#267,#268,#269));
#792=EDGE_LOOP('',(#270,#271,#272,#273,#274,#275,#276,#277,#278,#279,#280,
#281));
#793=EDGE_LOOP('',(#282,#283,#284,#285));
#794=EDGE_LOOP('',(#286,#287,#288,#289));
#795=EDGE_LOOP('',(#290,#291,#292,#293));
#796=EDGE_LOOP('',(#294,#295,#296,#297));
#797=EDGE_LOOP('',(#298,#299,#300,#301));
#798=EDGE_LOOP('',(#302,#303,#304,#305));
#799=EDGE_LOOP('',(#306,#307,#308));
#800=EDGE_LOOP('',(#309,#310,#311,#312));
#801=EDGE_LOOP('',(#313,#314,#315,#316,#317));
#802=EDGE_LOOP('',(#318,#319,#320,#321));
#803=EDGE_LOOP('',(#322,#323,#324,#325));
#804=EDGE_LOOP('',(#326,#327,#328,#329));
#805=EDGE_LOOP('',(#330,#331,#332,#333));
#806=EDGE_LOOP('',(#334,#335,#336,#337));
#807=EDGE_LOOP('',(#338,#339,#340,#341,#342));
#808=EDGE_LOOP('',(#343,#344,#345,#346));
#809=EDGE_LOOP('',(#347,#348,#349,#350,#351));
#810=EDGE_LOOP('',(#352,#353,#354,#355));
#811=EDGE_LOOP('',(#356,#357,#358,#359));
#812=EDGE_LOOP('',(#360,#361,#362,#363));
#813=EDGE_LOOP('',(#364,#365,#366,#367));
#814=EDGE_LOOP('',(#368,#369,#370,#371,#372,#373,#374,#375,#376,#377));
#815=EDGE_LOOP('',(#378,#379,#380,#381));
#816=EDGE_LOOP('',(#382,#383,#384,#385));
#817=EDGE_LOOP('',(#386,#387,#388,#389));
#818=EDGE_LOOP('',(#390,#391,#392,#393));
#819=EDGE_LOOP('',(#394,#395,#396,#397,#398,#399,#400,#401));
#820=EDGE_LOOP('',(#402,#403,#404,#405));
#821=EDGE_LOOP('',(#406,#407,#408,#409,#410));
#822=EDGE_LOOP('',(#411,#412,#413,#414,#415));
#823=EDGE_LOOP('',(#416,#417,#418,#419,#420,#421,#422,#423,#424,#425,#426,
#427,#428,#429,#430,#431));
#824=EDGE_LOOP('',(#432,#433,#434,#435));
#825=EDGE_LOOP('',(#436,#437,#438,#439));
#826=EDGE_LOOP('',(#440,#441,#442,#443));
#827=EDGE_LOOP('',(#444,#445,#446,#447));
#828=EDGE_LOOP('',(#448,#449,#450));
#829=EDGE_LOOP('',(#451,#452,#453,#454));
#830=EDGE_LOOP('',(#455,#456,#457));
#831=EDGE_LOOP('',(#458,#459,#460,#461));
#832=EDGE_LOOP('',(#462,#463,#464));
#833=EDGE_LOOP('',(#465,#466,#467,#468));
#834=EDGE_LOOP('',(#469,#470,#471));
#835=EDGE_LOOP('',(#472,#473,#474,#475));
#836=EDGE_LOOP('',(#476,#477,#478,#479));
#837=EDGE_LOOP('',(#480,#481,#482,#483));
#838=EDGE_LOOP('',(#484,#485,#486,#487));
#839=EDGE_LOOP('',(#488,#489,#490,#491));
#840=EDGE_LOOP('',(#492,#493,#494,#495));
#841=EDGE_LOOP('',(#496,#497,#498,#499));
#842=EDGE_LOOP('',(#500,#501,#502,#503));
#843=EDGE_LOOP('',(#504,#505,#506));
#844=EDGE_LOOP('',(#507,#508,#509,#510));
#845=EDGE_LOOP('',(#511,#512,#513));
#846=EDGE_LOOP('',(#514,#515,#516,#517));
#847=EDGE_LOOP('',(#518,#519,#520,#521));
#848=EDGE_LOOP('',(#522,#523,#524,#525));
#849=EDGE_LOOP('',(#526,#527,#528,#529,#530,#531,#532,#533,#534,#535,#536,
#537,#538,#539,#540,#541,#542,#543,#544,#545,#546,#547,#548,#549));
#850=FACE_BOUND('',#790,.T.);
#851=FACE_BOUND('',#791,.T.);
#852=FACE_BOUND('',#792,.T.);
#853=FACE_BOUND('',#793,.T.);
#854=FACE_BOUND('',#794,.T.);
#855=FACE_BOUND('',#795,.T.);
#856=FACE_BOUND('',#796,.T.);
#857=FACE_BOUND('',#797,.T.);
#858=FACE_BOUND('',#798,.T.);
#859=FACE_BOUND('',#799,.T.);
#860=FACE_BOUND('',#800,.T.);
#861=FACE_BOUND('',#801,.T.);
#862=FACE_BOUND('',#802,.T.);
#863=FACE_BOUND('',#803,.T.);
#864=FACE_BOUND('',#804,.T.);
#865=FACE_BOUND('',#805,.T.);
#866=FACE_BOUND('',#806,.T.);
#867=FACE_BOUND('',#807,.T.);
#868=FACE_BOUND('',#808,.T.);
#869=FACE_BOUND('',#809,.T.);
#870=FACE_BOUND('',#810,.T.);
#871=FACE_BOUND('',#811,.T.);
#872=FACE_BOUND('',#812,.T.);
#873=FACE_BOUND('',#813,.T.);
#874=FACE_BOUND('',#814,.T.);
#875=FACE_BOUND('',#815,.T.);
#876=FACE_BOUND('',#816,.T.);
#877=FACE_BOUND('',#817,.T.);
#878=FACE_BOUND('',#818,.T.);
#879=FACE_BOUND('',#819,.T.);
#880=FACE_BOUND('',#820,.T.);
#881=FACE_BOUND('',#821,.T.);
#882=FACE_BOUND('',#822,.T.);
#883=FACE_BOUND('',#823,.T.);
#884=FACE_BOUND('',#824,.T.);
#885=FACE_BOUND('',#825,.T.);
#886=FACE_BOUND('',#826,.T.);
#887=FACE_BOUND('',#827,.T.);
#888=FACE_BOUND('',#828,.T.);
#889=FACE_BOUND('',#829,.T.);
#890=FACE_BOUND('',#830,.T.);
#891=FACE_BOUND('',#831,.T.);
#892=FACE_BOUND('',#832,.T.);
#893=FACE_BOUND('',#833,.T.);
#894=FACE_BOUND('',#834,.T.);
#895=FACE_BOUND('',#835,.T.);
#896=FACE_BOUND('',#836,.T.);
#897=FACE_BOUND('',#837,.T.);
#898=FACE_BOUND('',#838,.T.);
#899=FACE_BOUND('',#839,.T.);
#900=FACE_BOUND('',#840,.T.);
#901=FACE_BOUND('',#841,.T.);
#902=FACE_BOUND('',#842,.T.);
#903=FACE_BOUND('',#843,.T.);
#904=FACE_BOUND('',#844,.T.);
#905=FACE_BOUND('',#845,.T.);
#906=FACE_BOUND('',#846,.T.);
#907=FACE_BOUND('',#847,.T.);
#908=FACE_BOUND('',#848,.T.);
#909=FACE_BOUND('',#849,.T.);
#910=PLANE('',#1003);
#911=PLANE('',#1005);
#912=PLANE('',#1008);
#913=PLANE('',#1011);
#914=PLANE('',#1014);
#915=PLANE('',#1018);
#916=PLANE('',#1021);
#917=PLANE('',#1024);
#918=PLANE('',#1028);
#919=PLANE('',#1032);
#920=PLANE('',#1036);
#921=PLANE('',#1040);
#922=PLANE('',#1041);
#923=PLANE('',#1045);
#924=PLANE('',#1048);
#925=PLANE('',#1050);
#926=PLANE('',#1054);
#927=PLANE('',#1060);
#928=PLANE('',#1063);
#929=PLANE('',#1065);
#930=PLANE('',#1067);
#931=ADVANCED_FACE('',(#850),#910,.T.);
#932=ADVANCED_FACE('',(#851),#911,.T.);
#933=ADVANCED_FACE('',(#852),#912,.F.);
#934=ADVANCED_FACE('',(#853),#913,.T.);
#935=ADVANCED_FACE('',(#854),#36,.T.);
#936=ADVANCED_FACE('',(#855),#914,.T.);
#937=ADVANCED_FACE('',(#856),#37,.T.);
#938=ADVANCED_FACE('',(#857),#915,.T.);
#939=ADVANCED_FACE('',(#858),#38,.T.);
#940=ADVANCED_FACE('',(#859),#916,.T.);
#941=ADVANCED_FACE('',(#860),#917,.T.);
#942=ADVANCED_FACE('',(#861),#39,.T.);
#943=ADVANCED_FACE('',(#862),#918,.T.);
#944=ADVANCED_FACE('',(#863),#40,.T.);
#945=ADVANCED_FACE('',(#864),#919,.T.);
#946=ADVANCED_FACE('',(#865),#41,.T.);
#947=ADVANCED_FACE('',(#866),#920,.T.);
#948=ADVANCED_FACE('',(#867),#42,.T.);
#949=ADVANCED_FACE('',(#868),#921,.T.);
#950=ADVANCED_FACE('',(#869),#922,.T.);
#951=ADVANCED_FACE('',(#870),#43,.T.);
#952=ADVANCED_FACE('',(#871),#923,.T.);
#953=ADVANCED_FACE('',(#872),#44,.T.);
#954=ADVANCED_FACE('',(#873),#924,.T.);
#955=ADVANCED_FACE('',(#874),#925,.T.);
#956=ADVANCED_FACE('',(#875),#45,.F.);
#957=ADVANCED_FACE('',(#876),#926,.F.);
#958=ADVANCED_FACE('',(#877),#46,.F.);
#959=ADVANCED_FACE('',(#878),#47,.T.);
#960=ADVANCED_FACE('',(#879,#880),#927,.T.);
#961=ADVANCED_FACE('',(#881),#928,.F.);
#962=ADVANCED_FACE('',(#882),#929,.F.);
#963=ADVANCED_FACE('',(#883),#930,.F.);
#964=ADVANCED_FACE('',(#884),#20,.T.);
#965=ADVANCED_FACE('',(#885),#48,.T.);
#966=ADVANCED_FACE('',(#886),#21,.T.);
#967=ADVANCED_FACE('',(#887),#49,.T.);
#968=ADVANCED_FACE('',(#888),#12,.T.);
#969=ADVANCED_FACE('',(#889),#50,.T.);
#970=ADVANCED_FACE('',(#890),#13,.T.);
#971=ADVANCED_FACE('',(#891),#51,.T.);
#972=ADVANCED_FACE('',(#892),#14,.T.);
#973=ADVANCED_FACE('',(#893),#52,.T.);
#974=ADVANCED_FACE('',(#894),#15,.T.);
#975=ADVANCED_FACE('',(#895),#53,.T.);
#976=ADVANCED_FACE('',(#896),#54,.T.);
#977=ADVANCED_FACE('',(#897),#22,.T.);
#978=ADVANCED_FACE('',(#898),#23,.T.);
#979=ADVANCED_FACE('',(#899),#55,.T.);
#980=ADVANCED_FACE('',(#900),#56,.T.);
#981=ADVANCED_FACE('',(#901),#16,.T.);
#982=ADVANCED_FACE('',(#902),#57,.T.);
#983=ADVANCED_FACE('',(#903),#17,.T.);
#984=ADVANCED_FACE('',(#904),#58,.T.);
#985=ADVANCED_FACE('',(#905),#18,.T.);
#986=ADVANCED_FACE('',(#906),#59,.T.);
#987=ADVANCED_FACE('',(#907),#19,.T.);
#988=ADVANCED_FACE('',(#908),#60,.T.);
#989=ADVANCED_FACE('',(#909),#61,.F.);
#990=CLOSED_SHELL('',(#931,#932,#933,#934,#935,#936,#937,#938,#939,#940,
#941,#942,#943,#944,#945,#946,#947,#948,#949,#950,#951,#952,#953,#954,#955,
#956,#957,#958,#959,#960,#961,#962,#963,#964,#965,#966,#967,#968,#969,#970,
#971,#972,#973,#974,#975,#976,#977,#978,#979,#980,#981,#982,#983,#984,#985,
#986,#987,#988,#989));
#991=STYLED_ITEM('',(#992),#999);
#992=PRESENTATION_STYLE_ASSIGNMENT((#993));
#993=SURFACE_STYLE_USAGE(.BOTH.,#994);
#994=SURFACE_SIDE_STYLE('',(#995));
#995=SURFACE_STYLE_FILL_AREA(#996);
#996=FILL_AREA_STYLE('',(#997));
#997=FILL_AREA_STYLE_COLOUR('',#998);
#998=COLOUR_RGB('',0.768627450980392,0.886274509803922,0.952941176470588);
#999=MANIFOLD_SOLID_BREP('Part PCB case back',#990);
#1000=SHAPE_DEFINITION_REPRESENTATION(#1756,#1001);
#1001=SHAPE_REPRESENTATION('Part PCB case back',(#1002),#1751);
#1002=AXIS2_PLACEMENT_3D('',#1422,#1116,#1117);
#1003=AXIS2_PLACEMENT_3D('',#1423,#1118,#1119);
#1004=AXIS2_PLACEMENT_3D('',#1424,#1120,#1121);
#1005=AXIS2_PLACEMENT_3D('',#1434,#1126,#1127);
#1006=AXIS2_PLACEMENT_3D('',#1435,#1128,#1129);
#1007=AXIS2_PLACEMENT_3D('',#1440,#1131,#1132);
#1008=AXIS2_PLACEMENT_3D('',#1441,#1133,#1134);
#1009=AXIS2_PLACEMENT_3D('',#1445,#1136,#1137);
#1010=AXIS2_PLACEMENT_3D('',#1449,#1139,#1140);
#1011=AXIS2_PLACEMENT_3D('',#1466,#1149,#1150);
#1012=AXIS2_PLACEMENT_3D('',#1475,#1155,#1156);
#1013=AXIS2_PLACEMENT_3D('',#1483,#1158,#1159);
#1014=AXIS2_PLACEMENT_3D('',#1484,#1160,#1161);
#1015=AXIS2_PLACEMENT_3D('',#1485,#1162,#1163);
#1016=AXIS2_PLACEMENT_3D('',#1490,#1166,#1167);
#1017=AXIS2_PLACEMENT_3D('',#1498,#1169,#1170);
#1018=AXIS2_PLACEMENT_3D('',#1499,#1171,#1172);
#1019=AXIS2_PLACEMENT_3D('',#1505,#1176,#1177);
#1020=AXIS2_PLACEMENT_3D('',#1510,#1178,#1179);
#1021=AXIS2_PLACEMENT_3D('',#1511,#1180,#1181);
#1022=AXIS2_PLACEMENT_3D('',#1512,#1182,#1183);
#1023=AXIS2_PLACEMENT_3D('',#1515,#1184,#1185);
#1024=AXIS2_PLACEMENT_3D('',#1518,#1187,#1188);
#1025=AXIS2_PLACEMENT_3D('',#1524,#1192,#1193);
#1026=AXIS2_PLACEMENT_3D('',#1525,#1194,#1195);
#1027=AXIS2_PLACEMENT_3D('',#1533,#1196,#1197);
#1028=AXIS2_PLACEMENT_3D('',#1536,#1199,#1200);
#1029=AXIS2_PLACEMENT_3D('',#1542,#1204,#1205);
#1030=AXIS2_PLACEMENT_3D('',#1543,#1206,#1207);
#1031=AXIS2_PLACEMENT_3D('',#1547,#1209,#1210);
#1032=AXIS2_PLACEMENT_3D('',#1548,#1211,#1212);
#1033=AXIS2_PLACEMENT_3D('',#1554,#1216,#1217);
#1034=AXIS2_PLACEMENT_3D('',#1555,#1218,#1219);
#1035=AXIS2_PLACEMENT_3D('',#1559,#1221,#1222);
#1036=AXIS2_PLACEMENT_3D('',#1560,#1223,#1224);
#1037=AXIS2_PLACEMENT_3D('',#1566,#1228,#1229);
#1038=AXIS2_PLACEMENT_3D('',#1576,#1231,#1232);
#1039=AXIS2_PLACEMENT_3D('',#1577,#1233,#1234);
#1040=AXIS2_PLACEMENT_3D('',#1578,#1235,#1236);
#1041=AXIS2_PLACEMENT_3D('',#1584,#1240,#1241);
#1042=AXIS2_PLACEMENT_3D('',#1585,#1242,#1243);
#1043=AXIS2_PLACEMENT_3D('',#1592,#1247,#1248);
#1044=AXIS2_PLACEMENT_3D('',#1600,#1250,#1251);
#1045=AXIS2_PLACEMENT_3D('',#1601,#1252,#1253);
#1046=AXIS2_PLACEMENT_3D('',#1607,#1257,#1258);
#1047=AXIS2_PLACEMENT_3D('',#1615,#1260,#1261);
#1048=AXIS2_PLACEMENT_3D('',#1616,#1262,#1263);
#1049=AXIS2_PLACEMENT_3D('',#1617,#1264,#1265);
#1050=AXIS2_PLACEMENT_3D('',#1622,#1268,#1269);
#1051=AXIS2_PLACEMENT_3D('',#1643,#1276,#1277);
#1052=AXIS2_PLACEMENT_3D('',#1644,#1278,#1279);
#1053=AXIS2_PLACEMENT_3D('',#1648,#1281,#1282);
#1054=AXIS2_PLACEMENT_3D('',#1649,#1283,#1284);
#1055=AXIS2_PLACEMENT_3D('',#1655,#1288,#1289);
#1056=AXIS2_PLACEMENT_3D('',#1656,#1290,#1291);
#1057=AXIS2_PLACEMENT_3D('',#1657,#1292,#1293);
#1058=AXIS2_PLACEMENT_3D('',#1658,#1294,#1295);
#1059=AXIS2_PLACEMENT_3D('',#1663,#1296,#1297);
#1060=AXIS2_PLACEMENT_3D('',#1664,#1298,#1299);
#1061=AXIS2_PLACEMENT_3D('',#1675,#1306,#1307);
#1062=AXIS2_PLACEMENT_3D('',#1680,#1309,#1310);
#1063=AXIS2_PLACEMENT_3D('',#1683,#1312,#1313);
#1064=AXIS2_PLACEMENT_3D('',#1684,#1314,#1315);
#1065=AXIS2_PLACEMENT_3D('',#1686,#1317,#1318);
#1066=AXIS2_PLACEMENT_3D('',#1687,#1319,#1320);
#1067=AXIS2_PLACEMENT_3D('',#1689,#1322,#1323);
#1068=AXIS2_PLACEMENT_3D('',#1690,#1324,#1325);
#1069=AXIS2_PLACEMENT_3D('',#1691,#1326,#1327);
#1070=AXIS2_PLACEMENT_3D('',#1692,#1328,#1329);
#1071=AXIS2_PLACEMENT_3D('',#1693,#1330,#1331);
#1072=AXIS2_PLACEMENT_3D('',#1694,#1332,#1333);
#1073=AXIS2_PLACEMENT_3D('',#1695,#1334,#1335);
#1074=AXIS2_PLACEMENT_3D('',#1696,#1336,#1337);
#1075=AXIS2_PLACEMENT_3D('',#1697,#1338,#1339);
#1076=AXIS2_PLACEMENT_3D('',#1698,#1340,#1341);
#1077=AXIS2_PLACEMENT_3D('',#1699,#1342,#1343);
#1078=AXIS2_PLACEMENT_3D('',#1700,#1344,#1345);
#1079=AXIS2_PLACEMENT_3D('',#1701,#1346,#1347);
#1080=AXIS2_PLACEMENT_3D('',#1702,#1348,#1349);
#1081=AXIS2_PLACEMENT_3D('',#1703,#1350,#1351);
#1082=AXIS2_PLACEMENT_3D('',#1704,#1352,#1353);
#1083=AXIS2_PLACEMENT_3D('',#1705,#1354,#1355);
#1084=AXIS2_PLACEMENT_3D('',#1706,#1356,#1357);
#1085=AXIS2_PLACEMENT_3D('',#1707,#1358,#1359);
#1086=AXIS2_PLACEMENT_3D('',#1708,#1360,#1361);
#1087=AXIS2_PLACEMENT_3D('',#1709,#1362,#1363);
#1088=AXIS2_PLACEMENT_3D('',#1710,#1364,#1365);
#1089=AXIS2_PLACEMENT_3D('',#1711,#1366,#1367);
#1090=AXIS2_PLACEMENT_3D('',#1712,#1368,#1369);
#1091=AXIS2_PLACEMENT_3D('',#1713,#1370,#1371);
#1092=AXIS2_PLACEMENT_3D('',#1714,#1372,#1373);
#1093=AXIS2_PLACEMENT_3D('',#1715,#1374,#1375);
#1094=AXIS2_PLACEMENT_3D('',#1716,#1376,#1377);
#1095=AXIS2_PLACEMENT_3D('',#1717,#1378,#1379);
#1096=AXIS2_PLACEMENT_3D('',#1718,#1380,#1381);
#1097=AXIS2_PLACEMENT_3D('',#1719,#1382,#1383);
#1098=AXIS2_PLACEMENT_3D('',#1720,#1384,#1385);
#1099=AXIS2_PLACEMENT_3D('',#1723,#1387,#1388);
#1100=AXIS2_PLACEMENT_3D('',#1724,#1389,#1390);
#1101=AXIS2_PLACEMENT_3D('',#1729,#1391,#1392);
#1102=AXIS2_PLACEMENT_3D('',#1730,#1393,#1394);
#1103=AXIS2_PLACEMENT_3D('',#1731,#1395,#1396);
#1104=AXIS2_PLACEMENT_3D('',#1732,#1397,#1398);
#1105=AXIS2_PLACEMENT_3D('',#1733,#1399,#1400);
#1106=AXIS2_PLACEMENT_3D('',#1734,#1401,#1402);
#1107=AXIS2_PLACEMENT_3D('',#1735,#1403,#1404);
#1108=AXIS2_PLACEMENT_3D('',#1736,#1405,#1406);
#1109=AXIS2_PLACEMENT_3D('',#1737,#1407,#1408);
#1110=AXIS2_PLACEMENT_3D('',#1738,#1409,#1410);
#1111=AXIS2_PLACEMENT_3D('',#1739,#1411,#1412);
#1112=AXIS2_PLACEMENT_3D('',#1740,#1413,#1414);
#1113=AXIS2_PLACEMENT_3D('',#1746,#1415,#1416);
#1114=AXIS2_PLACEMENT_3D('',#1747,#1417,#1418);
#1115=AXIS2_PLACEMENT_3D('',#1749,#1420,#1421);
#1116=DIRECTION('',(0.,0.,1.));
#1117=DIRECTION('',(1.,0.,0.));
#1118=DIRECTION('',(-0.866025403784439,-5.78241158658936E-17,0.5));
#1119=DIRECTION('',(0.5,0.,0.866025403784439));
#1120=DIRECTION('',(-0.866025403784439,-5.78241158658936E-17,0.5));
#1121=DIRECTION('',(0.5,-1.00154306582477E-16,0.866025403784439));
#1122=DIRECTION('',(0.,-1.,-1.15648231731787E-16));
#1123=DIRECTION('',(-0.5,1.00154306582477E-16,-0.866025403784439));
#1124=DIRECTION('',(0.,1.,1.15648231731787E-16));
#1125=DIRECTION('',(0.,-1.,-1.15648231731787E-16));
#1126=DIRECTION('',(0.866025403784439,-5.78241158658936E-17,0.5));
#1127=DIRECTION('',(0.5,0.,-0.866025403784439));
#1128=DIRECTION('',(0.866025403784439,-5.78241158658936E-17,0.5));
#1129=DIRECTION('',(0.5,1.00154306582477E-16,-0.866025403784439));
#1130=DIRECTION('',(-0.5,-1.00154306582477E-16,0.866025403784439));
#1131=DIRECTION('',(0.866025403784439,-5.78241158658936E-17,0.5));
#1132=DIRECTION('',(0.5,1.00154306582477E-16,-0.866025403784439));
#1133=DIRECTION('',(0.,1.,1.15648231731787E-16));
#1134=DIRECTION('',(-1.,0.,0.));
#1135=DIRECTION('',(-1.,-5.39294899301982E-33,4.66323515047529E-17));
#1136=DIRECTION('',(0.,1.,1.15648231731787E-16));
#1137=DIRECTION('',(0.,-1.15648231731787E-16,1.));
#1138=DIRECTION('',(-1.,0.,0.));
#1139=DIRECTION('',(0.,1.,1.15648231731787E-16));
#1140=DIRECTION('',(0.,-1.15648231731787E-16,1.));
#1141=DIRECTION('',(-1.,-5.39294899301982E-33,4.66323515047529E-17));
#1142=DIRECTION('',(-0.776915868056941,-7.28126386237664E-17,0.629604426573805));
#1143=DIRECTION('',(1.,0.,0.));
#1144=DIRECTION('',(0.,-1.15648231731787E-16,1.));
#1145=DIRECTION('',(-1.,0.,0.));
#1146=DIRECTION('',(0.,1.15648231731787E-16,-1.));
#1147=DIRECTION('',(1.,0.,0.));
#1148=DIRECTION('',(-0.77691586805694,7.28126386237665E-17,-0.629604426573806));
#1149=DIRECTION('',(0.,1.15648231731787E-16,-1.));
#1150=DIRECTION('',(0.,1.,1.15648231731787E-16));
#1151=DIRECTION('',(1.,0.,0.));
#1152=DIRECTION('',(0.,-1.,-1.15648231731787E-16));
#1153=DIRECTION('',(1.,0.,0.));
#1154=DIRECTION('',(0.,-1.,-1.15648231731787E-16));
#1155=DIRECTION('',(0.,-1.,-1.15648231731787E-16));
#1156=DIRECTION('',(0.,1.15648231731787E-16,-1.));
#1157=DIRECTION('',(0.,-1.,-1.15648231731787E-16));
#1158=DIRECTION('',(0.,1.,1.15648231731787E-16));
#1159=DIRECTION('',(0.,-1.15648231731787E-16,1.));
#1160=DIRECTION('',(0.866025403784439,-5.78241158658936E-17,0.5));
#1161=DIRECTION('',(0.5,0.,-0.866025403784439));
#1162=DIRECTION('',(0.866025403784439,-5.78241158658936E-17,0.5));
#1163=DIRECTION('',(0.5,1.00154306582477E-16,-0.866025403784439));
#1164=DIRECTION('',(-0.5,-1.00154306582477E-16,0.866025403784439));
#1165=DIRECTION('',(0.,-1.,-1.15648231731787E-16));
#1166=DIRECTION('',(0.,-1.,-1.15648231731787E-16));
#1167=DIRECTION('',(0.,1.15648231731787E-16,-1.));
#1168=DIRECTION('',(0.,-1.,-1.15648231731787E-16));
#1169=DIRECTION('',(0.,1.,1.15648231731787E-16));
#1170=DIRECTION('',(0.,-1.15648231731787E-16,1.));
#1171=DIRECTION('',(0.,1.15648231731787E-16,-1.));
#1172=DIRECTION('',(0.,1.,1.15648231731787E-16));
#1173=DIRECTION('',(1.,0.,0.));
#1174=DIRECTION('',(1.,0.,0.));
#1175=DIRECTION('',(0.,-1.,-1.15648231731787E-16));
#1176=DIRECTION('',(0.,-1.,-1.15648231731787E-16));
#1177=DIRECTION('',(0.,1.15648231731787E-16,-1.));
#1178=DIRECTION('',(0.,1.,1.15648231731787E-16));
#1179=DIRECTION('',(0.,-1.15648231731787E-16,1.));
#1180=DIRECTION('',(-0.866025403784439,-5.78241158658936E-17,0.5));
#1181=DIRECTION('',(0.5,0.,0.866025403784439));
#1182=DIRECTION('',(-0.866025403784439,-5.78241158658936E-17,0.5));
#1183=DIRECTION('',(0.5,-1.00154306582477E-16,0.866025403784439));
#1184=DIRECTION('',(-0.866025403784439,-5.78241158658936E-17,0.5));
#1185=DIRECTION('',(0.5,-1.00154306582477E-16,0.866025403784439));
#1186=DIRECTION('',(-0.5,1.00154306582477E-16,-0.866025403784439));
#1187=DIRECTION('',(0.,1.15648231731787E-16,-1.));
#1188=DIRECTION('',(0.,1.,1.15648231731787E-16));
#1189=DIRECTION('',(1.,0.,0.));
#1190=DIRECTION('',(1.,0.,0.));
#1191=DIRECTION('',(0.,-1.,-1.15648231731787E-16));
#1192=DIRECTION('',(0.,-1.,-1.15648231731787E-16));
#1193=DIRECTION('',(0.,1.15648231731787E-16,-1.));
#1194=DIRECTION('',(0.,-1.,-1.15648231731787E-16));
#1195=DIRECTION('',(0.,1.15648231731787E-16,-1.));
#1196=DIRECTION('',(0.,-1.,-1.15648231731787E-16));
#1197=DIRECTION('',(0.,1.15648231731787E-16,-1.));
#1198=DIRECTION('',(0.,-1.,-1.15648231731787E-16));
#1199=DIRECTION('',(-1.,0.,0.));
#1200=DIRECTION('',(0.,0.,1.));
#1201=DIRECTION('',(0.,1.15648231731787E-16,-1.));
#1202=DIRECTION('',(0.,-1.,-1.15648231731787E-16));
#1203=DIRECTION('',(0.,1.15648231731787E-16,-1.));
#1204=DIRECTION('',(0.,-1.,-1.15648231731787E-16));
#1205=DIRECTION('',(0.,1.15648231731787E-16,-1.));
#1206=DIRECTION('',(0.,-1.,-1.15648231731787E-16));
#1207=DIRECTION('',(0.,1.15648231731787E-16,-1.));
#1208=DIRECTION('',(0.,-1.,-1.15648231731787E-16));
#1209=DIRECTION('',(0.,-1.,-1.15648231731787E-16));
#1210=DIRECTION('',(0.,1.15648231731787E-16,-1.));
#1211=DIRECTION('',(0.,-1.15648231731787E-16,1.));
#1212=DIRECTION('',(0.,-1.,-1.15648231731787E-16));
#1213=DIRECTION('',(-1.,0.,0.));
#1214=DIRECTION('',(0.,-1.,-1.15648231731787E-16));
#1215=DIRECTION('',(-1.,0.,0.));
#1216=DIRECTION('',(0.,-1.,-1.15648231731787E-16));
#1217=DIRECTION('',(0.,1.15648231731787E-16,-1.));
#1218=DIRECTION('',(0.,-1.,-1.15648231731787E-16));
#1219=DIRECTION('',(0.,1.15648231731787E-16,-1.));
#1220=DIRECTION('',(0.,-1.,-1.15648231731787E-16));
#1221=DIRECTION('',(0.,-1.,-1.15648231731787E-16));
#1222=DIRECTION('',(0.,1.15648231731787E-16,-1.));
#1223=DIRECTION('',(1.,0.,0.));
#1224=DIRECTION('',(0.,0.,-1.));
#1225=DIRECTION('',(0.,-1.15648231731787E-16,1.));
#1226=DIRECTION('',(0.,-1.,-1.15648231731787E-16));
#1227=DIRECTION('',(0.,-1.15648231731787E-16,1.));
#1228=DIRECTION('',(0.,-1.,-1.15648231731787E-16));
#1229=DIRECTION('',(0.,1.15648231731787E-16,-1.));
#1230=DIRECTION('',(0.,-1.,-1.15648231731787E-16));
#1231=DIRECTION('',(0.,-1.,-1.15648231731787E-16));
#1232=DIRECTION('',(0.,1.15648231731787E-16,-1.));
#1233=DIRECTION('',(0.,-1.,-1.15648231731787E-16));
#1234=DIRECTION('',(0.,1.15648231731787E-16,-1.));
#1235=DIRECTION('',(0.,1.15648231731787E-16,-1.));
#1236=DIRECTION('',(0.,1.,1.15648231731787E-16));
#1237=DIRECTION('',(1.,0.,0.));
#1238=DIRECTION('',(1.,0.,0.));
#1239=DIRECTION('',(0.,-1.,-1.15648231731787E-16));
#1240=DIRECTION('',(0.866025403784439,-5.78241158658936E-17,0.5));
#1241=DIRECTION('',(0.5,0.,-0.866025403784439));
#1242=DIRECTION('',(0.866025403784439,-5.78241158658936E-17,0.5));
#1243=DIRECTION('',(0.5,1.00154306582477E-16,-0.866025403784439));
#1244=DIRECTION('',(0.,1.,1.15648231731787E-16));
#1245=DIRECTION('',(-0.5,-1.00154306582477E-16,0.866025403784439));
#1246=DIRECTION('',(0.,-1.,-1.15648231731787E-16));
#1247=DIRECTION('',(0.,-1.,-1.15648231731787E-16));
#1248=DIRECTION('',(0.,1.15648231731787E-16,-1.));
#1249=DIRECTION('',(0.,-1.,-1.15648231731787E-16));
#1250=DIRECTION('',(0.,1.,1.15648231731787E-16));
#1251=DIRECTION('',(0.,-1.15648231731787E-16,1.));
#1252=DIRECTION('',(0.,1.15648231731787E-16,-1.));
#1253=DIRECTION('',(0.,1.,1.15648231731787E-16));
#1254=DIRECTION('',(1.,0.,0.));
#1255=DIRECTION('',(1.,0.,0.));
#1256=DIRECTION('',(0.,-1.,-1.15648231731787E-16));
#1257=DIRECTION('',(0.,-1.,-1.15648231731787E-16));
#1258=DIRECTION('',(0.,1.15648231731787E-16,-1.));
#1259=DIRECTION('',(0.,-1.,-1.15648231731787E-16));
#1260=DIRECTION('',(0.,1.,1.15648231731787E-16));
#1261=DIRECTION('',(0.,-1.15648231731787E-16,1.));
#1262=DIRECTION('',(-0.866025403784439,-5.78241158658936E-17,0.5));
#1263=DIRECTION('',(0.5,0.,0.866025403784439));
#1264=DIRECTION('',(-0.866025403784439,-5.78241158658936E-17,0.5));
#1265=DIRECTION('',(0.5,-1.00154306582477E-16,0.866025403784439));
#1266=DIRECTION('',(-0.5,1.00154306582477E-16,-0.866025403784439));
#1267=DIRECTION('',(0.,-1.,-1.15648231731787E-16));
#1268=DIRECTION('',(7.88510670898549E-17,-1.15648231731787E-16,1.));
#1269=DIRECTION('',(0.,-1.,-1.15648231731787E-16));
#1270=DIRECTION('',(0.,-1.,-1.15648231731787E-16));
#1271=DIRECTION('',(-1.,-9.11898647910623E-33,7.88510670898549E-17));
#1272=DIRECTION('',(0.,-1.,-1.15648231731787E-16));
#1273=DIRECTION('',(0.,1.,1.15648231731787E-16));
#1274=DIRECTION('',(-1.,-5.39294899301982E-33,4.66323515047529E-17));
#1275=DIRECTION('',(0.,1.,1.15648231731787E-16));
#1276=DIRECTION('',(0.,-1.,-1.15648231731787E-16));
#1277=DIRECTION('',(0.,1.15648231731787E-16,-1.));
#1278=DIRECTION('',(0.,1.,1.15648231731787E-16));
#1279=DIRECTION('',(0.,-1.15648231731787E-16,1.));
#1280=DIRECTION('',(0.,-1.,-1.15648231731787E-16));
#1281=DIRECTION('',(0.,1.,1.15648231731787E-16));
#1282=DIRECTION('',(0.,-1.15648231731787E-16,1.));
#1283=DIRECTION('',(0.,-1.15648231731787E-16,1.));
#1284=DIRECTION('',(0.,-1.,-1.15648231731787E-16));
#1285=DIRECTION('',(-1.,0.,0.));
#1286=DIRECTION('',(0.,-1.,-1.15648231731787E-16));
#1287=DIRECTION('',(-1.,0.,0.));
#1288=DIRECTION('',(0.,-1.,-1.15648231731787E-16));
#1289=DIRECTION('',(0.,1.15648231731787E-16,-1.));
#1290=DIRECTION('',(0.,1.,1.15648231731787E-16));
#1291=DIRECTION('',(0.,-1.15648231731787E-16,1.));
#1292=DIRECTION('',(0.,1.,1.15648231731787E-16));
#1293=DIRECTION('',(0.,-1.15648231731787E-16,1.));
#1294=DIRECTION('',(0.,-1.,-1.15648231731787E-16));
#1295=DIRECTION('',(0.,1.15648231731787E-16,-1.));
#1296=DIRECTION('',(0.,1.,1.15648231731787E-16));
#1297=DIRECTION('',(0.,-1.15648231731787E-16,1.));
#1298=DIRECTION('',(0.,1.,1.15648231731787E-16));
#1299=DIRECTION('',(-1.,0.,0.));
#1300=DIRECTION('',(1.,0.,0.));
#1301=DIRECTION('',(1.,0.,0.));
#1302=DIRECTION('',(0.,1.15648231731787E-16,-1.));
#1303=DIRECTION('',(-1.,0.,0.));
#1304=DIRECTION('',(0.,-1.15648231731787E-16,1.));
#1305=DIRECTION('',(1.,0.,0.));
#1306=DIRECTION('',(0.,1.,1.15648231731787E-16));
#1307=DIRECTION('',(0.,-1.15648231731787E-16,1.));
#1308=DIRECTION('',(-1.,0.,0.));
#1309=DIRECTION('',(0.,1.,1.15648231731787E-16));
#1310=DIRECTION('',(0.,-1.15648231731787E-16,1.));
#1311=DIRECTION('',(-1.,-9.11898647910623E-33,7.88510670898549E-17));
#1312=DIRECTION('',(0.629604426573806,8.98489463451516E-17,-0.77691586805694));
#1313=DIRECTION('',(-0.77691586805694,0.,-0.629604426573806));
#1314=DIRECTION('',(0.629604426573806,8.98489463451516E-17,-0.77691586805694));
#1315=DIRECTION('',(-0.77691586805694,7.28126386237665E-17,-0.629604426573806));
#1316=DIRECTION('',(-0.77691586805694,7.28126386237665E-17,-0.629604426573806));
#1317=DIRECTION('',(-0.629604426573805,8.98489463451518E-17,-0.776915868056941));
#1318=DIRECTION('',(-0.776915868056941,0.,0.629604426573805));
#1319=DIRECTION('',(-0.629604426573805,8.98489463451518E-17,-0.776915868056941));
#1320=DIRECTION('',(-0.776915868056941,-7.28126386237664E-17,0.629604426573805));
#1321=DIRECTION('',(-0.776915868056941,-7.28126386237664E-17,0.629604426573805));
#1322=DIRECTION('',(0.,1.,1.15648231731787E-16));
#1323=DIRECTION('',(-1.,0.,0.));
#1324=DIRECTION('',(0.,1.,1.15648231731787E-16));
#1325=DIRECTION('',(0.,-1.15648231731787E-16,1.));
#1326=DIRECTION('',(-1.,0.,0.));
#1327=DIRECTION('',(0.,0.,1.));
#1328=DIRECTION('',(-1.,0.,0.));
#1329=DIRECTION('',(0.,0.,1.));
#1330=DIRECTION('',(-1.,0.,0.));
#1331=DIRECTION('',(0.,0.,1.));
#1332=DIRECTION('',(0.,1.,1.15648231731787E-16));
#1333=DIRECTION('',(0.,-1.15648231731787E-16,1.));
#1334=DIRECTION('',(-1.,0.,0.));
#1335=DIRECTION('',(0.,0.,1.));
#1336=DIRECTION('',(-1.,0.,0.));
#1337=DIRECTION('',(0.,0.,1.));
#1338=DIRECTION('',(0.,1.,1.15648231731787E-16));
#1339=DIRECTION('',(0.,-1.15648231731787E-16,1.));
#1340=DIRECTION('',(0.,-1.35525271560688E-16,1.));
#1341=DIRECTION('',(0.,-1.,-1.35525271560688E-16));
#1342=DIRECTION('',(0.,-1.15648231731787E-16,1.));
#1343=DIRECTION('',(0.,-1.,-1.15648231731787E-16));
#1344=DIRECTION('',(0.,0.,1.));
#1345=DIRECTION('',(1.,0.,0.));
#1346=DIRECTION('',(0.,1.,1.15648231731787E-16));
#1347=DIRECTION('',(0.,-1.15648231731787E-16,1.));
#1348=DIRECTION('',(1.,3.76158192263133E-29,-8.67361737988405E-15));
#1349=DIRECTION('',(-8.67361737988405E-15,0.,-1.));
#1350=DIRECTION('',(1.,0.,0.));
#1351=DIRECTION('',(0.,0.,-1.));
#1352=DIRECTION('',(1.,0.,0.));
#1353=DIRECTION('',(0.,0.,-1.));
#1354=DIRECTION('',(0.,1.,1.15648231731787E-16));
#1355=DIRECTION('',(0.,-1.15648231731787E-16,1.));
#1356=DIRECTION('',(-1.3010426069826E-14,0.,-1.));
#1357=DIRECTION('',(-1.,0.,1.3010426069826E-14));
#1358=DIRECTION('',(0.,1.15648231731787E-16,-1.));
#1359=DIRECTION('',(0.,1.,1.15648231731787E-16));
#1360=DIRECTION('',(0.,1.35525271560688E-16,-1.));
#1361=DIRECTION('',(0.,1.,1.35525271560688E-16));
#1362=DIRECTION('',(0.,1.,1.15648231731787E-16));
#1363=DIRECTION('',(0.,-1.15648231731787E-16,1.));
#1364=DIRECTION('',(-1.,0.,0.));
#1365=DIRECTION('',(0.,0.,1.));
#1366=DIRECTION('',(-1.,0.,0.));
#1367=DIRECTION('',(0.,0.,1.));
#1368=DIRECTION('',(-1.,-9.11898647910623E-33,7.88510670898549E-17));
#1369=DIRECTION('',(7.88510670898549E-17,0.,1.));
#1370=DIRECTION('',(-1.,0.,0.));
#1371=DIRECTION('',(0.,0.,1.));
#1372=DIRECTION('',(1.,0.,0.));
#1373=DIRECTION('',(0.,0.,-1.));
#1374=DIRECTION('',(0.,1.,1.15648231731787E-16));
#1375=DIRECTION('',(0.,-1.15648231731787E-16,1.));
#1376=DIRECTION('',(-1.,0.,0.));
#1377=DIRECTION('',(0.,0.,1.));
#1378=DIRECTION('',(0.,1.,1.15648231731787E-16));
#1379=DIRECTION('',(0.,-1.15648231731787E-16,1.));
#1380=DIRECTION('',(1.,0.,0.));
#1381=DIRECTION('',(0.,0.,-1.));
#1382=DIRECTION('',(1.,0.,0.));
#1383=DIRECTION('',(0.,0.,-1.));
#1384=DIRECTION('',(1.,0.,0.));
#1385=DIRECTION('',(0.,0.,-1.));
#1386=DIRECTION('',(1.,0.,0.));
#1387=DIRECTION('',(-1.,0.,0.));
#1388=DIRECTION('',(0.,0.,1.));
#1389=DIRECTION('',(0.,1.,1.15648231731787E-16));
#1390=DIRECTION('',(0.,-1.15648231731787E-16,1.));
#1391=DIRECTION('',(0.,-1.35525271560688E-16,1.));
#1392=DIRECTION('',(0.,-1.,-1.35525271560688E-16));
#1393=DIRECTION('',(0.,1.15648231731787E-16,-1.));
#1394=DIRECTION('',(0.,1.,1.15648231731787E-16));
#1395=DIRECTION('',(0.,0.,1.));
#1396=DIRECTION('',(1.,0.,0.));
#1397=DIRECTION('',(0.,1.,1.15648231731787E-16));
#1398=DIRECTION('',(0.,-1.15648231731787E-16,1.));
#1399=DIRECTION('',(1.,0.,-8.67361737988401E-15));
#1400=DIRECTION('',(-8.67361737988401E-15,0.,-1.));
#1401=DIRECTION('',(-1.,0.,0.));
#1402=DIRECTION('',(0.,0.,1.));
#1403=DIRECTION('',(1.,0.,0.));
#1404=DIRECTION('',(0.,0.,-1.));
#1405=DIRECTION('',(0.,1.,1.15648231731787E-16));
#1406=DIRECTION('',(0.,-1.15648231731787E-16,1.));
#1407=DIRECTION('',(-1.3010426069826E-14,0.,-1.));
#1408=DIRECTION('',(-1.,0.,1.3010426069826E-14));
#1409=DIRECTION('',(0.,-1.15648231731787E-16,1.));
#1410=DIRECTION('',(0.,-1.,-1.15648231731787E-16));
#1411=DIRECTION('',(0.,1.35525271560688E-16,-1.));
#1412=DIRECTION('',(0.,1.,1.35525271560688E-16));
#1413=DIRECTION('',(0.,1.,1.15648231731787E-16));
#1414=DIRECTION('',(0.,-1.15648231731787E-16,1.));
#1415=DIRECTION('',(-1.,0.,0.));
#1416=DIRECTION('',(0.,0.,1.));
#1417=DIRECTION('',(1.,0.,0.));
#1418=DIRECTION('',(0.,0.,-1.));
#1419=DIRECTION('',(1.,0.,0.));
#1420=DIRECTION('',(1.,0.,0.));
#1421=DIRECTION('',(0.,0.,-1.));
#1422=CARTESIAN_POINT('',(0.,0.,0.));
#1423=CARTESIAN_POINT('',(-0.00898038475772934,-0.000424739222217371,-0.0006));
#1424=CARTESIAN_POINT('',(-0.0100773502691896,-4.33680868994202E-19,-0.0025));
#1425=CARTESIAN_POINT('',(-0.00932679491924311,-0.00236643191323984,-0.0012));
#1426=CARTESIAN_POINT('',(-0.00863397459621557,-0.00101980390271856,-1.17938518062577E-19));
#1427=CARTESIAN_POINT('',(-0.00932679491924311,-0.000424739222217371,-0.0012));
#1428=CARTESIAN_POINT('',(-0.00932679491924311,-0.00342473922221737,-0.0012));
#1429=CARTESIAN_POINT('',(-0.00898038475772934,-0.00342473922221737,-0.0006));
#1430=CARTESIAN_POINT('',(-0.00863397459621556,-0.00342473922221737,-1.2612885273248E-18));
#1431=CARTESIAN_POINT('',(-0.00863397459621556,-0.00342473922221737,-1.2612885273248E-18));
#1432=CARTESIAN_POINT('',(-0.00863397459621556,-0.00122473922221737,-1.00686241751487E-18));
#1433=CARTESIAN_POINT('',(-0.00863397459621556,-0.000424739222217371,-9.14343832129442E-19));
#1434=CARTESIAN_POINT('',(0.00898038475772934,-0.000424739222217371,-0.0006));
#1435=CARTESIAN_POINT('',(0.0100773502691896,-4.33680868994202E-19,-0.0025));
#1436=CARTESIAN_POINT('',(0.00853791351146402,-0.000424739222217371,0.000166382679419851));
#1437=CARTESIAN_POINT('',(0.00853818355060436,-0.000427665099345701,0.000165914957908754));
#1438=CARTESIAN_POINT('',(0.00898038475772934,-0.000424739222217371,-0.0006));
#1439=CARTESIAN_POINT('',(0.00851850454237764,-0.000424739222217371,0.0002));
#1440=CARTESIAN_POINT('',(0.00851850454237764,-0.00062473922221737,0.0002));
#1441=CARTESIAN_POINT('',(0.,-0.00142473922221737,0.003));
#1442=CARTESIAN_POINT('',(-0.005075,-0.00142473922221737,0.001));
#1443=CARTESIAN_POINT('',(-0.00348484692283495,-0.00142473922221737,0.001));
#1444=CARTESIAN_POINT('',(-0.0074,-0.00142473922221737,0.001));
#1445=CARTESIAN_POINT('',(-0.00275,-0.00142473922221737,0.00225));
#1446=CARTESIAN_POINT('',(-0.00275,-0.00142473922221737,0.0037));
#1447=CARTESIAN_POINT('',(0.,-0.00142473922221737,0.0037));
#1448=CARTESIAN_POINT('',(0.00275,-0.00142473922221737,0.0037));
#1449=CARTESIAN_POINT('',(0.00275,-0.00142473922221737,0.00225));
#1450=CARTESIAN_POINT('',(0.00348484692283495,-0.00142473922221737,0.001));
#1451=CARTESIAN_POINT('',(-0.005075,-0.00142473922221737,0.001));
#1452=CARTESIAN_POINT('',(0.0074,-0.00142473922221737,0.001));
#1453=CARTESIAN_POINT('',(0.00801698729810778,-0.00142473922221737,0.0005));
#1454=CARTESIAN_POINT('',(0.00838717967697245,-0.00142473922221737,0.0002));
#1455=CARTESIAN_POINT('',(0.0108,-0.00142473922221737,0.0002));
#1456=CARTESIAN_POINT('',(0.0108,-0.00142473922221737,0.0002));
#1457=CARTESIAN_POINT('',(0.0108,-0.00142473922221737,0.0073));
#1458=CARTESIAN_POINT('',(0.0108,-0.00142473922221737,0.0073));
#1459=CARTESIAN_POINT('',(-0.0108,-0.00142473922221737,0.0073));
#1460=CARTESIAN_POINT('',(-0.0108,-0.00142473922221737,0.0073));
#1461=CARTESIAN_POINT('',(-0.0108,-0.00142473922221737,0.0002));
#1462=CARTESIAN_POINT('',(-0.0108,-0.00142473922221737,0.0002));
#1463=CARTESIAN_POINT('',(-0.00863397459621556,-0.00142473922221737,0.0002));
#1464=CARTESIAN_POINT('',(-0.00838717967697245,-0.00142473922221737,0.0002));
#1465=CARTESIAN_POINT('',(-0.00801698729810778,-0.00142473922221737,0.0005));
#1466=CARTESIAN_POINT('',(8.67361737988404E-19,-0.000424739222217371,4.85722573273507E-19));
#1467=CARTESIAN_POINT('',(-0.0745274091878368,-0.00101980390271856,3.15742350931625E-19));
#1468=CARTESIAN_POINT('',(0.00640218086767622,-0.00101980390271856,3.15742350931625E-19));
#1469=CARTESIAN_POINT('',(-0.00640218086767621,-0.00101980390271856,5.00387962488887E-19));
#1470=CARTESIAN_POINT('',(0.00640218086767622,-0.000424739222217371,4.85722573273507E-19));
#1471=CARTESIAN_POINT('',(0.00640218086767622,-0.00342473922221737,1.38777878078145E-19));
#1472=CARTESIAN_POINT('',(8.67361737988404E-19,-0.00342473922221737,1.38777878078145E-19));
#1473=CARTESIAN_POINT('',(-0.00640218086767621,-0.00342473922221737,2.02384405530628E-19));
#1474=CARTESIAN_POINT('',(-0.00640218086767621,-0.000424739222217371,5.49329100725989E-19));
#1475=CARTESIAN_POINT('',(-0.00656003983099822,-0.000424739222217371,-0.000122802881476504));
#1476=CARTESIAN_POINT('',(-0.00638683475024127,-0.000424739222217371,-2.28028814764613E-5));
#1477=CARTESIAN_POINT('',(-0.00638683475024127,-0.00107400858282358,-2.28028814764614E-5));
#1478=CARTESIAN_POINT('',(-0.00638683475024127,-0.00342473922221737,-2.28028814764617E-5));
#1479=CARTESIAN_POINT('',(-0.00638683475024127,-0.00107400858282356,-2.28028814764615E-5));
#1480=CARTESIAN_POINT('',(-0.00639137145717884,-0.00105588457808204,-1.49450745615484E-5));
#1481=CARTESIAN_POINT('',(-0.00639646685043445,-0.00103781024803677,-7.34517649167895E-6));
#1482=CARTESIAN_POINT('',(-0.00640218086767587,-0.00101980390271849,3.37918987483016E-17));
#1483=CARTESIAN_POINT('',(-0.00656003983099822,-0.00342473922221737,-0.000122802881476505));
#1484=CARTESIAN_POINT('',(-0.00604700721360686,-0.000424739222217371,-0.00061140144073823));
#1485=CARTESIAN_POINT('',(-0.00495662432702596,-4.33680868994202E-19,-0.0025));
#1486=CARTESIAN_POINT('',(-0.00570717967697245,-0.00236643191323984,-0.0012));
#1487=CARTESIAN_POINT('',(-0.00604700721360686,-0.00342473922221737,-0.00061140144073823));
#1488=CARTESIAN_POINT('',(-0.00570717967697245,-0.00342473922221737,-0.0012));
#1489=CARTESIAN_POINT('',(-0.00570717967697245,-0.000424739222217371,-0.0012));
#1490=CARTESIAN_POINT('',(-0.00588038475772934,-0.000424739222217371,-0.0013));
#1491=CARTESIAN_POINT('',(-0.00588038475772934,-0.000424739222217371,-0.0015));
#1492=CARTESIAN_POINT('',(-0.00588038475772934,-0.00250798724079689,-0.0015));
#1493=CARTESIAN_POINT('',(-0.00588038475772934,-0.00342473922221737,-0.0015));
#1494=CARTESIAN_POINT('',(-0.00588038475772934,-0.00250798724079689,-0.0015));
#1495=CARTESIAN_POINT('',(-0.00573000201889639,-0.00250798724079689,-0.0015));
#1496=CARTESIAN_POINT('',(-0.0056394448991654,-0.00243088172847782,-0.0013173200766012));
#1497=CARTESIAN_POINT('',(-0.00570717967697245,-0.00236643191323984,-0.0012));
#1498=CARTESIAN_POINT('',(-0.00588038475772934,-0.00342473922221737,-0.0013));
#1499=CARTESIAN_POINT('',(-0.00751698729810778,-0.000424739222217371,-0.0015));
#1500=CARTESIAN_POINT('',(-0.0745274091878368,-0.00250798724079689,-0.0015));
#1501=CARTESIAN_POINT('',(-0.00915358983848622,-0.00250798724079689,-0.0015));
#1502=CARTESIAN_POINT('',(-0.00751698729810778,-0.00342473922221737,-0.0015));
#1503=CARTESIAN_POINT('',(-0.00915358983848622,-0.00342473922221737,-0.0015));
#1504=CARTESIAN_POINT('',(-0.00915358983848622,-0.000424739222217371,-0.0015));
#1505=CARTESIAN_POINT('',(-0.00915358983848622,-0.000424739222217371,-0.0013));
#1506=CARTESIAN_POINT('',(-0.00932679491924311,-0.00236643191323984,-0.0012));
#1507=CARTESIAN_POINT('',(-0.00939464766361384,-0.00243099397396647,-0.00131752440068309));
#1508=CARTESIAN_POINT('',(-0.00930431633320592,-0.00250798724079689,-0.00149999999999999));
#1509=CARTESIAN_POINT('',(-0.00915358983848623,-0.00250798724079689,-0.0015));
#1510=CARTESIAN_POINT('',(-0.00915358983848622,-0.00342473922221737,-0.0013));
#1511=CARTESIAN_POINT('',(-0.00898038475772934,-0.000424739222217371,-0.0006));
#1512=CARTESIAN_POINT('',(-0.0100773502691896,-4.33680868994202E-19,-0.0025));
#1513=CARTESIAN_POINT('',(-0.00853818355060436,-0.000427665099345701,0.000165914957908754));
#1514=CARTESIAN_POINT('',(-0.00853791351146405,-0.000424739222217371,0.000166382679419842));
#1515=CARTESIAN_POINT('',(-0.00851850454237764,-0.00062473922221737,0.0002));
#1516=CARTESIAN_POINT('',(-0.00851850454237764,-0.000424739222217371,0.0002));
#1517=CARTESIAN_POINT('',(-0.00898038475772934,-0.000424739222217371,-0.0006));
#1518=CARTESIAN_POINT('',(-0.00971698729810778,-0.000424739222217371,1.38777878078145E-19));
#1519=CARTESIAN_POINT('',(-0.0745274091878368,-0.00101980390271856,-1.17938518062577E-19));
#1520=CARTESIAN_POINT('',(-0.0108,-0.00101980390271856,8.52753668546676E-19));
#1521=CARTESIAN_POINT('',(-0.0108,-0.00122473922221737,4.62592926927148E-20));
#1522=CARTESIAN_POINT('',(-0.0108,-0.00122473922221737,4.62592926927148E-20));
#1523=CARTESIAN_POINT('',(-0.0108,-0.000424739222217371,1.38777878078145E-19));
#1524=CARTESIAN_POINT('',(-0.0108,-0.000424739222217371,0.0002));
#1525=CARTESIAN_POINT('',(-0.0108,-0.00062473922221737,0.0002));
#1526=CARTESIAN_POINT('',(-0.011,-0.00062473922221737,0.0002));
#1527=CARTESIAN_POINT('',(-0.0109860947060774,-0.000624739222217371,0.000126728174787646));
#1528=CARTESIAN_POINT('',(-0.0109860947060774,-0.00062473922221737,0.000126728174787646));
#1529=CARTESIAN_POINT('',(-0.0109787637480823,-0.000703023418950864,0.000108109115286696));
#1530=CARTESIAN_POINT('',(-0.0109582617300647,-0.000845685227807178,6.90122371971822E-5));
#1531=CARTESIAN_POINT('',(-0.010881975296651,-0.00101980390271857,2.08852023357488E-19));
#1532=CARTESIAN_POINT('',(-0.0108,-0.00101980390271857,2.08852023357488E-19));
#1533=CARTESIAN_POINT('',(-0.0108,-0.00122473922221737,0.0002));
#1534=CARTESIAN_POINT('',(-0.011,-0.00122473922221737,0.0002));
#1535=CARTESIAN_POINT('',(-0.011,-0.000424739222217371,0.0002));
#1536=CARTESIAN_POINT('',(-0.011,-0.000424739222217371,0.0006));
#1537=CARTESIAN_POINT('',(-0.011,-0.00122473922221737,0.0073));
#1538=CARTESIAN_POINT('',(-0.011,-0.00122473922221737,0.0073));
#1539=CARTESIAN_POINT('',(-0.011,-0.000424739222217371,0.0073));
#1540=CARTESIAN_POINT('',(-0.011,-0.000624739222217371,0.0073));
#1541=CARTESIAN_POINT('',(-0.011,-0.00062473922221737,0.0006));
#1542=CARTESIAN_POINT('',(-0.0108,-0.000424739222217371,0.0073));
#1543=CARTESIAN_POINT('',(-0.0108,-0.00122473922221737,0.0073));
#1544=CARTESIAN_POINT('',(-0.0108,-0.00122473922221737,0.0075));
#1545=CARTESIAN_POINT('',(-0.0108,-0.000424739222217371,0.0075));
#1546=CARTESIAN_POINT('',(-0.0108,-0.000624739222217371,0.0075));
#1547=CARTESIAN_POINT('',(-0.0108,-0.000624739222217371,0.0073));
#1548=CARTESIAN_POINT('',(8.67361737988404E-19,-0.000424739222217371,0.0075));
#1549=CARTESIAN_POINT('',(0.0108,-0.00122473922221737,0.0075));
#1550=CARTESIAN_POINT('',(0.0108,-0.00122473922221737,0.0075));
#1551=CARTESIAN_POINT('',(0.0108,-0.000424739222217371,0.0075));
#1552=CARTESIAN_POINT('',(0.0108,-0.000624739222217371,0.0075));
#1553=CARTESIAN_POINT('',(8.67361737988404E-19,-0.000624739222217371,0.0075));
#1554=CARTESIAN_POINT('',(0.0108,-0.000424739222217371,0.0073));
#1555=CARTESIAN_POINT('',(0.0108,-0.00122473922221737,0.0073));
#1556=CARTESIAN_POINT('',(0.011,-0.00122473922221737,0.0073));
#1557=CARTESIAN_POINT('',(0.011,-0.000424739222217371,0.0073));
#1558=CARTESIAN_POINT('',(0.011,-0.000624739222217371,0.0073));
#1559=CARTESIAN_POINT('',(0.0108,-0.000624739222217371,0.0073));
#1560=CARTESIAN_POINT('',(0.011,-0.000424739222217371,0.00375));
#1561=CARTESIAN_POINT('',(0.011,-0.00122473922221737,0.0002));
#1562=CARTESIAN_POINT('',(0.011,-0.00122473922221737,0.0002));
#1563=CARTESIAN_POINT('',(0.011,-0.000424739222217371,0.0002));
#1564=CARTESIAN_POINT('',(0.011,-0.00062473922221737,0.0002));
#1565=CARTESIAN_POINT('',(0.011,-0.000624739222217371,0.00375));
#1566=CARTESIAN_POINT('',(0.0108,-0.000424739222217371,0.0002));
#1567=CARTESIAN_POINT('',(0.0108,-0.000424739222217371,1.38777878078145E-19));
#1568=CARTESIAN_POINT('',(0.0108,-0.00101980390271856,9.06963777170951E-19));
#1569=CARTESIAN_POINT('',(0.0108,-0.00122473922221737,4.62592926927148E-20));
#1570=CARTESIAN_POINT('',(0.0108,-0.00101980390271856,9.06963777170951E-19));
#1571=CARTESIAN_POINT('',(0.0108824800712449,-0.00101980390271856,9.06963777170951E-19));
#1572=CARTESIAN_POINT('',(0.010958278503073,-0.00084485390962518,6.92907377688514E-5));
#1573=CARTESIAN_POINT('',(0.0109787668274507,-0.000702990535679101,0.000108116936221432));
#1574=CARTESIAN_POINT('',(0.0109860947060774,-0.000624739222217373,0.000126728174787646));
#1575=CARTESIAN_POINT('',(0.0109860947060774,-0.000624739222217371,0.000126728174787646));
#1576=CARTESIAN_POINT('',(0.0108,-0.00062473922221737,0.0002));
#1577=CARTESIAN_POINT('',(0.0108,-0.00122473922221737,0.0002));
#1578=CARTESIAN_POINT('',(0.00971698729810778,-0.000424739222217371,1.38777878078145E-19));
#1579=CARTESIAN_POINT('',(-0.0745274091878368,-0.00101980390271856,-1.17938518062577E-19));
#1580=CARTESIAN_POINT('',(0.00863397459621557,-0.00101980390271856,-1.17938518062577E-19));
#1581=CARTESIAN_POINT('',(0.00863397459621556,-0.00122473922221737,4.62592926927148E-20));
#1582=CARTESIAN_POINT('',(0.00863397459621556,-0.00122473922221737,2.39970080843459E-19));
#1583=CARTESIAN_POINT('',(0.00863397459621556,-0.000424739222217371,3.32488666228888E-19));
#1584=CARTESIAN_POINT('',(0.00898038475772934,-0.000424739222217371,-0.0006));
#1585=CARTESIAN_POINT('',(0.0100773502691896,-4.33680868994202E-19,-0.0025));
#1586=CARTESIAN_POINT('',(0.00932679491924311,-0.00236643191323984,-0.0012));
#1587=CARTESIAN_POINT('',(0.00863397459621556,-0.00342473922221737,-1.44560289664735E-20));
#1588=CARTESIAN_POINT('',(0.00863397459621556,-0.00342473922221737,-1.44560289664735E-20));
#1589=CARTESIAN_POINT('',(0.00898038475772934,-0.00342473922221737,-0.0006));
#1590=CARTESIAN_POINT('',(0.00932679491924311,-0.00342473922221737,-0.0012));
#1591=CARTESIAN_POINT('',(0.00932679491924311,-0.000424739222217371,-0.0012));
#1592=CARTESIAN_POINT('',(0.00915358983848622,-0.000424739222217371,-0.0013));
#1593=CARTESIAN_POINT('',(0.00915358983848622,-0.000424739222217371,-0.0015));
#1594=CARTESIAN_POINT('',(0.00915358983848622,-0.00250798724079689,-0.0015));
#1595=CARTESIAN_POINT('',(0.00915358983848622,-0.00342473922221737,-0.0015));
#1596=CARTESIAN_POINT('',(0.00915358983848622,-0.00250798724079689,-0.0015));
#1597=CARTESIAN_POINT('',(0.00930397257731917,-0.00250798724079689,-0.0015));
#1598=CARTESIAN_POINT('',(0.00939452969705016,-0.00243088172847782,-0.0013173200766012));
#1599=CARTESIAN_POINT('',(0.00932679491924311,-0.00236643191323984,-0.0012));
#1600=CARTESIAN_POINT('',(0.00915358983848622,-0.00342473922221737,-0.0013));
#1601=CARTESIAN_POINT('',(0.00751698729810778,-0.000424739222217371,-0.0015));
#1602=CARTESIAN_POINT('',(-0.0745274091878368,-0.00250798724079689,-0.0015));
#1603=CARTESIAN_POINT('',(0.00588038475772934,-0.00250798724079689,-0.0015));
#1604=CARTESIAN_POINT('',(0.00751698729810778,-0.00342473922221737,-0.0015));
#1605=CARTESIAN_POINT('',(0.00588038475772934,-0.00342473922221737,-0.0015));
#1606=CARTESIAN_POINT('',(0.00588038475772934,-0.000424739222217371,-0.0015));
#1607=CARTESIAN_POINT('',(0.00588038475772934,-0.000424739222217371,-0.0013));
#1608=CARTESIAN_POINT('',(0.00570717967697245,-0.000424739222217371,-0.0012));
#1609=CARTESIAN_POINT('',(0.00570717967697245,-0.00236643191323984,-0.0012));
#1610=CARTESIAN_POINT('',(0.00570717967697245,-0.00342473922221737,-0.0012));
#1611=CARTESIAN_POINT('',(0.00570717967697245,-0.00236643191323984,-0.0012));
#1612=CARTESIAN_POINT('',(0.00563932693260172,-0.00243099397396647,-0.00131752440068309));
#1613=CARTESIAN_POINT('',(0.00572965826300965,-0.00250798724079689,-0.0015));
#1614=CARTESIAN_POINT('',(0.00588038475772934,-0.00250798724079689,-0.0015));
#1615=CARTESIAN_POINT('',(0.00588038475772934,-0.00342473922221737,-0.0013));
#1616=CARTESIAN_POINT('',(0.00604700721360686,-0.000424739222217371,-0.000611401440738234));
#1617=CARTESIAN_POINT('',(0.00495662432702594,-4.33680868994202E-19,-0.0025));
#1618=CARTESIAN_POINT('',(0.00638683475024126,-0.00107400858282358,-2.28028814764702E-5));
#1619=CARTESIAN_POINT('',(0.00604700721360686,-0.00342473922221737,-0.000611401440738234));
#1620=CARTESIAN_POINT('',(0.00638683475024126,-0.00342473922221737,-2.28028814764706E-5));
#1621=CARTESIAN_POINT('',(0.00638683475024126,-0.000424739222217371,-2.28028814764702E-5));
#1622=CARTESIAN_POINT('',(0.,-0.000424739222217371,0.001));
#1623=CARTESIAN_POINT('',(0.00275,-0.000424739222217371,0.001));
#1624=CARTESIAN_POINT('',(0.00275,-0.000624739222217371,0.001));
#1625=CARTESIAN_POINT('',(0.00275,-0.00122473922221737,0.001));
#1626=CARTESIAN_POINT('',(-2.73691106313441E-52,-0.000624739222217371,0.001));
#1627=CARTESIAN_POINT('',(-0.00275,-0.000624739222217371,0.001));
#1628=CARTESIAN_POINT('',(-0.00275,-0.000424739222217371,0.001));
#1629=CARTESIAN_POINT('',(-0.00275,-0.00122473922221737,0.001));
#1630=CARTESIAN_POINT('',(-0.00348484692283495,-0.00142473922221737,0.001));
#1631=CARTESIAN_POINT('',(-0.00322715513224404,-0.00142473922221737,0.001));
#1632=CARTESIAN_POINT('',(-0.00298606361111434,-0.00131916230601494,0.001));
#1633=CARTESIAN_POINT('',(-0.00275,-0.00122473922221737,0.001));
#1634=CARTESIAN_POINT('',(-0.0074,-0.00342473922221737,0.001));
#1635=CARTESIAN_POINT('',(-0.0074,-0.00342473922221737,0.001));
#1636=CARTESIAN_POINT('',(-0.005075,-0.00342473922221737,0.001));
#1637=CARTESIAN_POINT('',(0.0074,-0.00342473922221737,0.001));
#1638=CARTESIAN_POINT('',(0.0074,-0.00342473922221737,0.001));
#1639=CARTESIAN_POINT('',(0.00348484692283495,-0.00142473922221737,0.001));
#1640=CARTESIAN_POINT('',(0.00322715513224404,-0.00142473922221737,0.001));
#1641=CARTESIAN_POINT('',(0.00298606361111394,-0.00131916230601593,0.001));
#1642=CARTESIAN_POINT('',(0.00275,-0.00122473922221737,0.001));
#1643=CARTESIAN_POINT('',(0.00275,-0.000424739222217371,0.00225));
#1644=CARTESIAN_POINT('',(0.00275,-0.00122473922221737,0.00225));
#1645=CARTESIAN_POINT('',(0.00275,-0.00122473922221737,0.0035));
#1646=CARTESIAN_POINT('',(0.00275,-0.000424739222217371,0.0035));
#1647=CARTESIAN_POINT('',(0.00275,-0.000624739222217371,0.0035));
#1648=CARTESIAN_POINT('',(0.00275,-0.000624739222217371,0.00225));
#1649=CARTESIAN_POINT('',(8.67361737988404E-19,-0.000424739222217371,0.0035));
#1650=CARTESIAN_POINT('',(8.67361737988404E-19,-0.00122473922221737,0.0035));
#1651=CARTESIAN_POINT('',(-0.00275,-0.00122473922221737,0.0035));
#1652=CARTESIAN_POINT('',(-0.00275,-0.000424739222217371,0.0035));
#1653=CARTESIAN_POINT('',(-0.00275,-0.000624739222217371,0.0035));
#1654=CARTESIAN_POINT('',(0.00275,-0.000624739222217371,0.0035));
#1655=CARTESIAN_POINT('',(-0.00275,-0.000424739222217371,0.00225));
#1656=CARTESIAN_POINT('',(-0.00275,-0.00122473922221737,0.00225));
#1657=CARTESIAN_POINT('',(-0.00275,-0.000624739222217371,0.00225));
#1658=CARTESIAN_POINT('',(0.00656003983099812,-0.000424739222217371,-0.000122802881476454));
#1659=CARTESIAN_POINT('',(0.00640218086767622,-0.00101980390271856,3.10652582303924E-19));
#1660=CARTESIAN_POINT('',(0.00639646685043479,-0.00103781024803685,-7.3451764917155E-6));
#1661=CARTESIAN_POINT('',(0.00639137145717883,-0.00105588457808204,-1.49450745615497E-5));
#1662=CARTESIAN_POINT('',(0.00638683475024126,-0.00107400858282358,-2.28028814764698E-5));
#1663=CARTESIAN_POINT('',(0.00656003983099812,-0.00342473922221737,-0.000122802881476455));
#1664=CARTESIAN_POINT('',(0.,-0.000424739222217371,0.003));
#1665=CARTESIAN_POINT('',(-0.0745274091878368,-0.000424739222217371,0.000166382679419851));
#1666=CARTESIAN_POINT('',(0.,-0.000424739222217371,0.0002));
#1667=CARTESIAN_POINT('',(-0.0108,-0.000424739222217371,0.0002));
#1668=CARTESIAN_POINT('',(-0.0108,-0.000424739222217371,0.003));
#1669=CARTESIAN_POINT('',(-0.0108,-0.000424739222217371,0.0073));
#1670=CARTESIAN_POINT('',(0.,-0.000424739222217371,0.0073));
#1671=CARTESIAN_POINT('',(0.0108,-0.000424739222217371,0.0073));
#1672=CARTESIAN_POINT('',(0.0108,-0.000424739222217371,0.003));
#1673=CARTESIAN_POINT('',(0.0108,-0.000424739222217371,0.0002));
#1674=CARTESIAN_POINT('',(0.,-0.000424739222217371,0.0002));
#1675=CARTESIAN_POINT('',(0.00275,-0.000424739222217371,0.00225));
#1676=CARTESIAN_POINT('',(0.00275,-0.000424739222217371,0.0008));
#1677=CARTESIAN_POINT('',(0.00275,-0.000424739222217371,0.0037));
#1678=CARTESIAN_POINT('',(-0.00275,-0.000424739222217371,0.0037));
#1679=CARTESIAN_POINT('',(-0.00275,-0.000424739222217371,0.0037));
#1680=CARTESIAN_POINT('',(-0.00275,-0.000424739222217371,0.00225));
#1681=CARTESIAN_POINT('',(-0.00275,-0.000424739222217371,0.0008));
#1682=CARTESIAN_POINT('',(-1.73472347597681E-19,-0.000424739222217371,0.0008));
#1683=CARTESIAN_POINT('',(-0.00801698729810778,-0.00342473922221737,0.0005));
#1684=CARTESIAN_POINT('',(-0.00838717967697244,-0.00122473922221737,0.0002));
#1685=CARTESIAN_POINT('',(-0.00801698729810778,-0.00342473922221737,0.0005));
#1686=CARTESIAN_POINT('',(0.00801698729810778,-0.00342473922221737,0.0005));
#1687=CARTESIAN_POINT('',(0.00838717967697245,-0.00122473922221737,0.0002));
#1688=CARTESIAN_POINT('',(0.00801698729810778,-0.00342473922221737,0.0005));
#1689=CARTESIAN_POINT('',(0.,-0.00342473922221737,0.003));
#1690=CARTESIAN_POINT('',(0.00275,-0.00122473922221737,0.00225));
#1691=CARTESIAN_POINT('',(0.00275,-0.00122473922221737,0.0037));
#1692=CARTESIAN_POINT('',(8.67361737988404E-19,-0.00122473922221737,0.0037));
#1693=CARTESIAN_POINT('',(-0.00275,-0.00122473922221737,0.0037));
#1694=CARTESIAN_POINT('',(-0.00275,-0.00122473922221737,0.00225));
#1695=CARTESIAN_POINT('',(0.,-0.00122473922221737,0.0002));
#1696=CARTESIAN_POINT('',(-0.0108,-0.00122473922221737,0.0002));
#1697=CARTESIAN_POINT('',(-0.0108,-0.00122473922221737,0.0002));
#1698=CARTESIAN_POINT('',(-0.0108,-0.00122473922221737,0.0002));
#1699=CARTESIAN_POINT('',(-0.0108,-0.00122473922221737,0.003));
#1700=CARTESIAN_POINT('',(-0.0108,-0.00122473922221737,0.0073));
#1701=CARTESIAN_POINT('',(-0.0108,-0.00122473922221737,0.0073));
#1702=CARTESIAN_POINT('',(-0.0108,-0.00122473922221737,0.0073));
#1703=CARTESIAN_POINT('',(0.,-0.00122473922221737,0.0073));
#1704=CARTESIAN_POINT('',(0.0108,-0.00122473922221737,0.0073));
#1705=CARTESIAN_POINT('',(0.0108,-0.00122473922221737,0.0073));
#1706=CARTESIAN_POINT('',(0.0108,-0.00122473922221737,0.0073));
#1707=CARTESIAN_POINT('',(0.0108,-0.00122473922221737,0.003));
#1708=CARTESIAN_POINT('',(0.0108,-0.00122473922221737,0.0002));
#1709=CARTESIAN_POINT('',(0.0108,-0.00122473922221737,0.0002));
#1710=CARTESIAN_POINT('',(0.0108,-0.00122473922221737,0.0002));
#1711=CARTESIAN_POINT('',(0.,-0.00122473922221737,0.0002));
#1712=CARTESIAN_POINT('',(-1.57702134179709E-20,-0.000624739222217371,0.0008));
#1713=CARTESIAN_POINT('',(-0.00275,-0.000624739222217371,0.0008));
#1714=CARTESIAN_POINT('',(0.00275,-0.000624739222217371,0.0008));
#1715=CARTESIAN_POINT('',(0.00275,-0.000624739222217371,0.00225));
#1716=CARTESIAN_POINT('',(0.00275,-0.000624739222217371,0.0037));
#1717=CARTESIAN_POINT('',(-0.00275,-0.000624739222217371,0.00225));
#1718=CARTESIAN_POINT('',(-0.00275,-0.000624739222217371,0.0037));
#1719=CARTESIAN_POINT('',(0.,-0.000624739222217371,0.0037));
#1720=CARTESIAN_POINT('',(-0.00971698729810778,-0.00062473922221737,0.0002));
#1721=CARTESIAN_POINT('',(-2.77555756156289E-17,-0.000427665099345701,0.000165914957908754));
#1722=CARTESIAN_POINT('',(-0.0108,-0.000427665099345701,0.000165914957908754));
#1723=CARTESIAN_POINT('',(-0.0108,-0.00062473922221737,0.0002));
#1724=CARTESIAN_POINT('',(-0.0108,-0.00062473922221737,0.0002));
#1725=CARTESIAN_POINT('',(-0.0109860947060774,-0.000624739222217371,0.000126728174787646));
#1726=CARTESIAN_POINT('',(-0.010995501518929,-0.000524287850323654,0.000150619459980344));
#1727=CARTESIAN_POINT('',(-0.0109036436402661,-0.0004276650993457,0.000165914957908754));
#1728=CARTESIAN_POINT('',(-0.0108,-0.0004276650993457,0.000165914957908754));
#1729=CARTESIAN_POINT('',(-0.0108,-0.00062473922221737,0.0002));
#1730=CARTESIAN_POINT('',(-0.0108,-0.00062473922221737,0.0006));
#1731=CARTESIAN_POINT('',(-0.0108,-0.000624739222217371,0.0073));
#1732=CARTESIAN_POINT('',(-0.0108,-0.000624739222217371,0.0073));
#1733=CARTESIAN_POINT('',(-0.0108,-0.000624739222217371,0.0073));
#1734=CARTESIAN_POINT('',(8.67361737988404E-19,-0.000624739222217371,0.0073));
#1735=CARTESIAN_POINT('',(0.0108,-0.000624739222217371,0.0073));
#1736=CARTESIAN_POINT('',(0.0108,-0.000624739222217371,0.0073));
#1737=CARTESIAN_POINT('',(0.0108,-0.000624739222217371,0.0073));
#1738=CARTESIAN_POINT('',(0.0108,-0.000624739222217371,0.00375));
#1739=CARTESIAN_POINT('',(0.0108,-0.00062473922221737,0.0002));
#1740=CARTESIAN_POINT('',(0.0108,-0.00062473922221737,0.0002));
#1741=CARTESIAN_POINT('',(0.0108,-0.0004276650993457,0.000165914957908754));
#1742=CARTESIAN_POINT('',(0.0109036474354637,-0.0004276650993457,0.000165914957908754));
#1743=CARTESIAN_POINT('',(0.0109955022285884,-0.000524280272171984,0.000150621262362725));
#1744=CARTESIAN_POINT('',(0.0109860947060774,-0.000624739222217371,0.000126728174787646));
#1745=CARTESIAN_POINT('',(0.0108,-0.000427665099345701,0.000165914957908754));
#1746=CARTESIAN_POINT('',(0.0108,-0.00062473922221737,0.0002));
#1747=CARTESIAN_POINT('',(0.00971698729810778,-0.00062473922221737,0.0002));
#1748=CARTESIAN_POINT('',(-2.77555756156289E-17,-0.000427665099345701,0.000165914957908754));
#1749=CARTESIAN_POINT('',(-0.0745274091878368,-4.33680868994202E-19,-0.0025));
#1750=MECHANICAL_DESIGN_GEOMETRIC_PRESENTATION_REPRESENTATION('',(#991),
#1751);
#1751=(
GEOMETRIC_REPRESENTATION_CONTEXT(3)
GLOBAL_UNCERTAINTY_ASSIGNED_CONTEXT((#1752))
GLOBAL_UNIT_ASSIGNED_CONTEXT((#1755,#1754,#1753))
REPRESENTATION_CONTEXT('Part PCB case back','TOP_LEVEL_ASSEMBLY_PART')
);
#1752=UNCERTAINTY_MEASURE_WITH_UNIT(LENGTH_MEASURE(2.E-5),#1755,
'DISTANCE_ACCURACY_VALUE','Maximum Tolerance applied to model');
#1753=(
NAMED_UNIT(*)
SI_UNIT($,.STERADIAN.)
SOLID_ANGLE_UNIT()
);
#1754=(
NAMED_UNIT(*)
PLANE_ANGLE_UNIT()
SI_UNIT($,.RADIAN.)
);
#1755=(
LENGTH_UNIT()
NAMED_UNIT(*)
SI_UNIT($,.METRE.)
);
#1756=PRODUCT_DEFINITION_SHAPE('','',#1757);
#1757=PRODUCT_DEFINITION('','',#1759,#1758);
#1758=PRODUCT_DEFINITION_CONTEXT('',#1765,'design');
#1759=PRODUCT_DEFINITION_FORMATION_WITH_SPECIFIED_SOURCE('','',#1761,
 .NOT_KNOWN.);
#1760=PRODUCT_RELATED_PRODUCT_CATEGORY('','',(#1761));
#1761=PRODUCT('Part PCB case back','Part PCB case back',
'Part PCB case back',(#1763));
#1762=PRODUCT_CATEGORY('','');
#1763=PRODUCT_CONTEXT('',#1765,'mechanical');
#1764=APPLICATION_PROTOCOL_DEFINITION('international standard',
'ap242_managed_model_based_3d_engineering',2020,#1765);
#1765=APPLICATION_CONTEXT('managed model based 3d engineering');
ENDSEC;
END-ISO-10303-21;
